%
M48
M72
T01C0.0240
T02C0.0354
T03C0.0360
T04C0.0394
T05C0.0400
T06C0.0787
T07C0.1260
%
T01
X8980Y12500
X10100Y13220
X10580Y14740
X8100Y16020
X6180Y14740
T02
X13420Y17940
X14420Y17940
T03
X10740Y22180
X9740Y22180
X8740Y22180
X5030Y21200
X4030Y21200
X3030Y21200
X3600Y15880
X3600Y14880
X4600Y14880
X4600Y15880
X4600Y13860
X4600Y12860
X4600Y11860
X3600Y11860
X3600Y12860
X3600Y13860
X3600Y10840
X3600Y9840
X3600Y8840
X4600Y8840
X4600Y9840
X4600Y10840
T04
X1180Y10900
X1180Y11900
X1180Y12900
X1180Y14500
X1180Y15500
X1180Y16500
X1180Y17500
X1180Y18500
X1180Y19500
X1180Y20500
X1180Y21500
X1180Y9900
X1180Y8900
X1180Y7900
X1180Y6900
X1180Y5900
X1180Y4900
X1180Y3900
X20180Y7500
X20180Y8500
X20180Y9500
X20180Y10500
X20180Y11500
X20180Y12500
X20180Y13500
X20180Y14500
X20180Y16500
X20180Y17500
X20180Y18500
X20180Y19500
X20180Y20500
X20180Y21500
T05
X18020Y5540
X18020Y4540
X18020Y3540
X18020Y2540
X18020Y1540
X17020Y1540
X17020Y2540
X17020Y3540
X17020Y4540
X17020Y5540
X16020Y5540
X16020Y4540
X16020Y3540
X15020Y3540
X15020Y4540
X15020Y5540
X14020Y5540
X13060Y5540
X13060Y4540
X14020Y4540
X14020Y3540
X13060Y3540
X13060Y2540
X14020Y2540
X14020Y1540
X13060Y1540
X12060Y1540
X12060Y2540
X11060Y2540
X11060Y1540
X10060Y1540
X10060Y2540
X10060Y3540
X10060Y4540
X10060Y5540
X9060Y5540
X9060Y4540
X9060Y3540
X9060Y2540
X9060Y1540
X8020Y1540
X8020Y2540
X7020Y2540
X7020Y1540
X6020Y1540
X6020Y2540
X5020Y2540
X5020Y1540
X4020Y1540
X4020Y2540
X4020Y3540
X4020Y4540
X4020Y5540
X5020Y5540
X5020Y4540
X5020Y3540
X6020Y3540
X6020Y4540
X6020Y5540
X7020Y5540
X7020Y4540
X7020Y3540
X8020Y3540
X8020Y4540
X8020Y5540
X11060Y5540
X11060Y4540
X11060Y3540
X12060Y3540
X12060Y4540
X12060Y5540
X15020Y2540
X15020Y1540
X16020Y1540
X16020Y2540
T06
X16420Y19940
X12420Y19940
T07
X1180Y2000
X7180Y22010
X18180Y22020
X20180Y1500
M30
