G75*
G70*
%OFA0B0*%
%FSLAX24Y24*%
%IPPOS*%
%LPD*%
%AMOC8*
5,1,8,0,0,1.08239X$1,22.5*
%
%ADD10C,0.0560*%
%ADD11OC8,0.0560*%
%ADD12OC8,0.0660*%
%ADD13R,0.0600X0.0600*%
%ADD14C,0.0554*%
%ADD15C,0.0160*%
%ADD16C,0.0100*%
%ADD17C,0.0400*%
D10*
X003030Y020920D02*
X003030Y021480D01*
X004030Y021480D02*
X004030Y020920D01*
X005030Y020920D02*
X005030Y021480D01*
X008740Y021900D02*
X008740Y022460D01*
X009740Y022460D02*
X009740Y021900D01*
X010740Y021900D02*
X010740Y022460D01*
D11*
X004600Y015880D03*
X004600Y014880D03*
X003600Y014880D03*
X003600Y015880D03*
X003600Y013860D03*
X003600Y012860D03*
X003600Y011860D03*
X004600Y011860D03*
X004600Y012860D03*
X004600Y013860D03*
X004600Y010840D03*
X004600Y009840D03*
X004600Y008840D03*
X003600Y008840D03*
X003600Y009840D03*
X003600Y010840D03*
D12*
X001180Y010900D03*
X001180Y011900D03*
X001180Y012900D03*
X001180Y014500D03*
X001180Y015500D03*
X001180Y016500D03*
X001180Y017500D03*
X001180Y018500D03*
X001180Y019500D03*
X001180Y020500D03*
X001180Y021500D03*
X001180Y009900D03*
X001180Y008900D03*
X001180Y007900D03*
X001180Y006900D03*
X001180Y005900D03*
X001180Y004900D03*
X001180Y003900D03*
X020180Y007500D03*
X020180Y008500D03*
X020180Y009500D03*
X020180Y010500D03*
X020180Y011500D03*
X020180Y012500D03*
X020180Y013500D03*
X020180Y014500D03*
X020180Y016500D03*
X020180Y017500D03*
X020180Y018500D03*
X020180Y019500D03*
X020180Y020500D03*
X020180Y021500D03*
D13*
X018020Y005540D03*
X018020Y004540D03*
X018020Y003540D03*
X018020Y002540D03*
X018020Y001540D03*
X017020Y001540D03*
X017020Y002540D03*
X017020Y003540D03*
X017020Y004540D03*
X017020Y005540D03*
X016020Y005540D03*
X016020Y004540D03*
X016020Y003540D03*
X015020Y003540D03*
X015020Y004540D03*
X015020Y005540D03*
X014020Y005540D03*
X013060Y005540D03*
X013060Y004540D03*
X014020Y004540D03*
X014020Y003540D03*
X013060Y003540D03*
X013060Y002540D03*
X014020Y002540D03*
X014020Y001540D03*
X013060Y001540D03*
X012060Y001540D03*
X012060Y002540D03*
X011060Y002540D03*
X011060Y001540D03*
X010060Y001540D03*
X010060Y002540D03*
X010060Y003540D03*
X010060Y004540D03*
X010060Y005540D03*
X009060Y005540D03*
X009060Y004540D03*
X009060Y003540D03*
X009060Y002540D03*
X009060Y001540D03*
X008020Y001540D03*
X008020Y002540D03*
X007020Y002540D03*
X007020Y001540D03*
X006020Y001540D03*
X006020Y002540D03*
X005020Y002540D03*
X005020Y001540D03*
X004020Y001540D03*
X004020Y002540D03*
X004020Y003540D03*
X004020Y004540D03*
X004020Y005540D03*
X005020Y005540D03*
X005020Y004540D03*
X005020Y003540D03*
X006020Y003540D03*
X006020Y004540D03*
X006020Y005540D03*
X007020Y005540D03*
X007020Y004540D03*
X007020Y003540D03*
X008020Y003540D03*
X008020Y004540D03*
X008020Y005540D03*
X011060Y005540D03*
X011060Y004540D03*
X011060Y003540D03*
X012060Y003540D03*
X012060Y004540D03*
X012060Y005540D03*
X015020Y002540D03*
X015020Y001540D03*
X016020Y001540D03*
X016020Y002540D03*
D14*
X014420Y017940D03*
X013420Y017940D03*
D15*
X001862Y001112D02*
X001633Y000980D01*
X019199Y000980D01*
X019146Y001072D01*
X019070Y001354D01*
X019070Y001646D01*
X019146Y001928D01*
X019292Y002182D01*
X019498Y002388D01*
X019752Y002534D01*
X020034Y002610D01*
X020326Y002610D01*
X020608Y002534D01*
X020700Y002481D01*
X020700Y022020D01*
X020258Y022020D01*
X020241Y022014D01*
X020163Y022020D01*
X020085Y022020D01*
X020068Y022027D01*
X020051Y022028D01*
X019981Y022063D01*
X019908Y022093D01*
X019896Y022106D01*
X019215Y022446D01*
X019290Y022166D01*
X019290Y021874D01*
X019214Y021592D01*
X019068Y021338D01*
X018862Y021132D01*
X018608Y020986D01*
X018326Y020910D01*
X018034Y020910D01*
X017752Y020986D01*
X017498Y021132D01*
X017292Y021338D01*
X017146Y021592D01*
X017070Y021874D01*
X017070Y022166D01*
X017146Y022448D01*
X017187Y022520D01*
X011180Y022520D01*
X011180Y022390D01*
X014507Y022390D01*
X014630Y022267D01*
X014630Y018326D01*
X014668Y018311D01*
X014791Y018188D01*
X014857Y018027D01*
X014857Y017853D01*
X014791Y017692D01*
X014668Y017569D01*
X014507Y017503D01*
X014333Y017503D01*
X014295Y017518D01*
X014027Y017250D01*
X013387Y017250D01*
X010940Y014803D01*
X010940Y014668D01*
X010891Y014550D01*
X017467Y014550D01*
X017590Y014427D01*
X019670Y012347D01*
X019670Y012482D01*
X020162Y012482D01*
X020162Y012518D01*
X019670Y012518D01*
X019670Y012711D01*
X019959Y013000D01*
X019670Y013289D01*
X019670Y013482D01*
X020162Y013482D01*
X020162Y013518D01*
X019670Y013518D01*
X019670Y013711D01*
X019969Y014010D01*
X020162Y014010D01*
X020162Y013518D01*
X020198Y013518D01*
X020198Y014010D01*
X020391Y014010D01*
X020690Y013711D01*
X020690Y013518D01*
X020198Y013518D01*
X020198Y013482D01*
X020690Y013482D01*
X020690Y013289D01*
X020401Y013000D01*
X020690Y012711D01*
X020690Y012518D01*
X020198Y012518D01*
X020198Y012482D01*
X020690Y012482D01*
X020690Y012289D01*
X020391Y011990D01*
X020198Y011990D01*
X020198Y012482D01*
X020162Y012482D01*
X020162Y011990D01*
X020027Y011990D01*
X020027Y011990D01*
X020383Y011990D01*
X020670Y011703D01*
X020670Y011297D01*
X020383Y011010D01*
X019977Y011010D01*
X019690Y011297D01*
X019690Y011703D01*
X019705Y011718D01*
X017293Y014130D01*
X009693Y014130D01*
X008163Y015660D01*
X008028Y015660D01*
X007896Y015715D01*
X007801Y015810D01*
X006390Y015810D01*
X006390Y015039D01*
X006485Y014944D01*
X006540Y014812D01*
X006540Y014668D01*
X006485Y014536D01*
X006384Y014435D01*
X006252Y014380D01*
X006108Y014380D01*
X005976Y014435D01*
X005875Y014536D01*
X005820Y014668D01*
X005820Y014812D01*
X005875Y014944D01*
X005970Y015039D01*
X005970Y020930D01*
X005470Y020930D01*
X005470Y020832D01*
X005403Y020671D01*
X005279Y020547D01*
X005118Y020480D01*
X004942Y020480D01*
X004781Y020547D01*
X004657Y020671D01*
X004590Y020832D01*
X004590Y021568D01*
X004657Y021729D01*
X004781Y021853D01*
X004942Y021920D01*
X005118Y021920D01*
X005279Y021853D01*
X005403Y021729D01*
X005470Y021568D01*
X005470Y021350D01*
X006267Y021350D01*
X006390Y021227D01*
X006390Y016230D01*
X007801Y016230D01*
X007896Y016325D01*
X008028Y016380D01*
X008172Y016380D01*
X008304Y016325D01*
X008405Y016224D01*
X008460Y016092D01*
X008460Y015957D01*
X009867Y014550D01*
X010269Y014550D01*
X010220Y014668D01*
X010220Y014812D01*
X010275Y014944D01*
X010376Y015045D01*
X010508Y015100D01*
X010643Y015100D01*
X013090Y017547D01*
X013142Y017599D01*
X013049Y017692D01*
X012983Y017853D01*
X012983Y018027D01*
X012987Y018036D01*
X012413Y018610D01*
X011933Y018610D01*
X009693Y020850D01*
X009570Y020973D01*
X009570Y021494D01*
X009491Y021527D01*
X009367Y021651D01*
X009300Y021812D01*
X009300Y022520D01*
X009196Y022520D01*
X009200Y022496D01*
X009200Y022190D01*
X008750Y022190D01*
X008750Y022170D01*
X009200Y022170D01*
X009200Y021864D01*
X009189Y021792D01*
X009166Y021723D01*
X009133Y021659D01*
X009091Y021600D01*
X009040Y021549D01*
X008981Y021507D01*
X008917Y021474D01*
X008848Y021451D01*
X008776Y021440D01*
X008750Y021440D01*
X008750Y022170D01*
X008730Y022170D01*
X008730Y021440D01*
X008704Y021440D01*
X008632Y021451D01*
X008563Y021474D01*
X008499Y021507D01*
X008440Y021549D01*
X008389Y021600D01*
X008347Y021659D01*
X008314Y021723D01*
X008291Y021792D01*
X008284Y021841D01*
X008214Y021582D01*
X008068Y021328D01*
X007862Y021122D01*
X007608Y020976D01*
X007326Y020900D01*
X007034Y020900D01*
X006752Y020976D01*
X006498Y021122D01*
X006292Y021328D01*
X006146Y021582D01*
X006070Y021864D01*
X006070Y022156D01*
X006133Y022390D01*
X005564Y022106D01*
X005552Y022093D01*
X005479Y022063D01*
X005409Y022028D01*
X005392Y022027D01*
X005375Y022020D01*
X005297Y022020D01*
X005219Y022014D01*
X005202Y022020D01*
X001065Y022020D01*
X001049Y021990D01*
X001383Y021990D01*
X001670Y021703D01*
X001670Y021297D01*
X001383Y021010D01*
X000977Y021010D01*
X000690Y021297D01*
X000690Y021333D01*
X000660Y021278D01*
X000660Y015670D01*
X000690Y015670D01*
X000690Y015703D01*
X000977Y015990D01*
X001383Y015990D01*
X001490Y015883D01*
X001490Y016117D01*
X001383Y016010D01*
X000977Y016010D01*
X000690Y016297D01*
X000690Y016703D01*
X000977Y016990D01*
X001383Y016990D01*
X001490Y016883D01*
X001490Y017117D01*
X001383Y017010D01*
X000977Y017010D01*
X000690Y017297D01*
X000690Y017703D01*
X000977Y017990D01*
X001383Y017990D01*
X001670Y017703D01*
X001670Y017670D01*
X001730Y017670D01*
X001730Y018290D01*
X001663Y018290D01*
X001383Y018010D01*
X000977Y018010D01*
X000690Y018297D01*
X000690Y018703D01*
X000977Y018990D01*
X001383Y018990D01*
X001663Y018710D01*
X002027Y018710D01*
X002150Y018587D01*
X002150Y016587D01*
X003417Y015320D01*
X003418Y015320D01*
X003782Y015320D01*
X004040Y015062D01*
X004040Y014698D01*
X003782Y014440D01*
X003418Y014440D01*
X003160Y014698D01*
X003160Y014983D01*
X001910Y016233D01*
X001910Y015787D01*
X003407Y014290D01*
X003418Y014300D01*
X003782Y014300D01*
X004040Y014042D01*
X004040Y013678D01*
X003782Y013420D01*
X003418Y013420D01*
X003160Y013678D01*
X003160Y013943D01*
X002790Y014313D01*
X002790Y011947D01*
X003457Y011280D01*
X003782Y011280D01*
X003970Y011092D01*
X003970Y011213D01*
X003763Y011420D01*
X003418Y011420D01*
X003160Y011678D01*
X003160Y012042D01*
X003418Y012300D01*
X003782Y012300D01*
X004040Y012042D01*
X004040Y011737D01*
X004267Y011510D01*
X004390Y011387D01*
X004390Y011252D01*
X004418Y011280D01*
X004743Y011280D01*
X006050Y012587D01*
X006153Y012690D01*
X005040Y012690D01*
X005040Y012678D01*
X004790Y012428D01*
X004790Y012292D01*
X005040Y012042D01*
X005040Y011678D01*
X004782Y011420D01*
X004418Y011420D01*
X004160Y011678D01*
X004160Y012042D01*
X004370Y012252D01*
X004370Y012468D01*
X004160Y012678D01*
X004160Y013042D01*
X004370Y013252D01*
X004370Y013468D01*
X004160Y013678D01*
X004160Y014042D01*
X004418Y014300D01*
X004782Y014300D01*
X005040Y014042D01*
X005040Y013678D01*
X004790Y013428D01*
X004790Y013292D01*
X004972Y013110D01*
X009693Y013110D01*
X009740Y013157D01*
X009740Y013292D01*
X009795Y013424D01*
X009896Y013525D01*
X010028Y013580D01*
X010172Y013580D01*
X010304Y013525D01*
X010405Y013424D01*
X010460Y013292D01*
X010460Y013148D01*
X010405Y013016D01*
X010304Y012915D01*
X010172Y012860D01*
X010037Y012860D01*
X009990Y012813D01*
X009867Y012690D01*
X009291Y012690D01*
X009340Y012572D01*
X009340Y012428D01*
X009285Y012296D01*
X009184Y012195D01*
X009052Y012140D01*
X008908Y012140D01*
X008776Y012195D01*
X008681Y012290D01*
X006347Y012290D01*
X005040Y010983D01*
X005040Y010658D01*
X004790Y010408D01*
X004790Y010272D01*
X005040Y010022D01*
X005040Y009658D01*
X004790Y009408D01*
X004790Y009272D01*
X005040Y009022D01*
X005040Y008658D01*
X004782Y008400D01*
X004418Y008400D01*
X004160Y008658D01*
X004160Y009022D01*
X004370Y009232D01*
X004370Y009448D01*
X004160Y009658D01*
X004160Y010022D01*
X004370Y010232D01*
X004370Y010313D01*
X004267Y010210D01*
X003852Y010210D01*
X004040Y010022D01*
X004040Y009658D01*
X003782Y009400D01*
X003418Y009400D01*
X003160Y009658D01*
X003160Y009943D01*
X001910Y011193D01*
X001910Y010827D01*
X003457Y009280D01*
X003782Y009280D01*
X004040Y009022D01*
X004040Y008658D01*
X003782Y008400D01*
X003418Y008400D01*
X003160Y008658D01*
X003160Y008983D01*
X001613Y010530D01*
X001558Y010585D01*
X001383Y010410D01*
X000977Y010410D01*
X000690Y010697D01*
X000690Y011103D01*
X000977Y011390D01*
X001383Y011390D01*
X001490Y011283D01*
X001490Y011517D01*
X001383Y011410D01*
X000977Y011410D01*
X000690Y011697D01*
X000690Y012103D01*
X000977Y012390D01*
X001383Y012390D01*
X001670Y012103D01*
X001670Y012070D01*
X001730Y012070D01*
X001730Y012690D01*
X001663Y012690D01*
X001383Y012410D01*
X000977Y012410D01*
X000690Y012697D01*
X000690Y013103D01*
X000977Y013390D01*
X001383Y013390D01*
X001663Y013110D01*
X001970Y013110D01*
X001970Y013810D01*
X000893Y013810D01*
X000660Y014043D01*
X000660Y002981D01*
X000752Y003034D01*
X001034Y003110D01*
X001326Y003110D01*
X001608Y003034D01*
X001862Y002888D01*
X002068Y002682D01*
X002214Y002428D01*
X002290Y002146D01*
X002290Y001854D01*
X002214Y001572D01*
X002068Y001318D01*
X001862Y001112D01*
X001884Y001134D02*
X003600Y001134D01*
X003560Y001174D02*
X003654Y001080D01*
X004386Y001080D01*
X004480Y001174D01*
X004480Y001906D01*
X004386Y002000D01*
X003654Y002000D01*
X003560Y001906D01*
X003560Y001174D01*
X003560Y001293D02*
X002042Y001293D01*
X002145Y001451D02*
X003560Y001451D01*
X003560Y001610D02*
X002224Y001610D01*
X002267Y001768D02*
X003560Y001768D01*
X003580Y001927D02*
X002290Y001927D01*
X002290Y002085D02*
X003649Y002085D01*
X003654Y002080D02*
X003560Y002174D01*
X003560Y002906D01*
X003654Y003000D01*
X004386Y003000D01*
X004480Y002906D01*
X004480Y002174D01*
X004386Y002080D01*
X003654Y002080D01*
X003560Y002244D02*
X002264Y002244D01*
X002221Y002402D02*
X003560Y002402D01*
X003560Y002561D02*
X002138Y002561D01*
X002031Y002719D02*
X003560Y002719D01*
X003560Y002878D02*
X001872Y002878D01*
X001602Y003036D02*
X020700Y003036D01*
X020700Y002878D02*
X018480Y002878D01*
X018480Y002906D02*
X018386Y003000D01*
X017654Y003000D01*
X017560Y002906D01*
X017560Y002174D01*
X017654Y002080D01*
X018386Y002080D01*
X018480Y002174D01*
X018480Y002906D01*
X018480Y002719D02*
X020700Y002719D01*
X020700Y002561D02*
X020511Y002561D01*
X020700Y003195D02*
X018480Y003195D01*
X018480Y003174D02*
X018386Y003080D01*
X017654Y003080D01*
X017560Y003174D01*
X017560Y003906D01*
X017654Y004000D01*
X018386Y004000D01*
X018480Y003906D01*
X018480Y003174D01*
X018480Y003353D02*
X020700Y003353D01*
X020700Y003512D02*
X018480Y003512D01*
X018480Y003670D02*
X020700Y003670D01*
X020700Y003829D02*
X018480Y003829D01*
X018399Y003987D02*
X020700Y003987D01*
X020700Y004146D02*
X018452Y004146D01*
X018480Y004174D02*
X018386Y004080D01*
X017654Y004080D01*
X017560Y004174D01*
X017560Y004906D01*
X017654Y005000D01*
X018386Y005000D01*
X018480Y004906D01*
X018480Y004174D01*
X018480Y004304D02*
X020700Y004304D01*
X020700Y004463D02*
X018480Y004463D01*
X018480Y004621D02*
X020700Y004621D01*
X020700Y004780D02*
X018480Y004780D01*
X018448Y004938D02*
X020700Y004938D01*
X020700Y005097D02*
X018403Y005097D01*
X018386Y005080D02*
X018480Y005174D01*
X018480Y005906D01*
X018386Y006000D01*
X017654Y006000D01*
X017560Y005906D01*
X017560Y005174D01*
X017654Y005080D01*
X018386Y005080D01*
X018480Y005255D02*
X020700Y005255D01*
X020700Y005414D02*
X018480Y005414D01*
X018480Y005572D02*
X020700Y005572D01*
X020700Y005731D02*
X018480Y005731D01*
X018480Y005889D02*
X020700Y005889D01*
X020700Y006048D02*
X001670Y006048D01*
X001670Y006103D02*
X001383Y006390D01*
X000977Y006390D01*
X000690Y006103D01*
X000690Y005697D01*
X000977Y005410D01*
X001383Y005410D01*
X001670Y005697D01*
X001670Y006103D01*
X001567Y006206D02*
X020700Y006206D01*
X020700Y006365D02*
X001408Y006365D01*
X001391Y006390D02*
X001690Y006689D01*
X001690Y006882D01*
X001198Y006882D01*
X001198Y006918D01*
X001162Y006918D01*
X001162Y006882D01*
X000670Y006882D01*
X000670Y006689D01*
X000969Y006390D01*
X001162Y006390D01*
X001162Y006882D01*
X001198Y006882D01*
X001198Y006390D01*
X001391Y006390D01*
X001524Y006523D02*
X020700Y006523D01*
X020700Y006682D02*
X001683Y006682D01*
X001690Y006840D02*
X020700Y006840D01*
X020700Y006999D02*
X001690Y006999D01*
X001690Y006918D02*
X001690Y007111D01*
X001391Y007410D01*
X001198Y007410D01*
X001198Y006918D01*
X001690Y006918D01*
X001644Y007157D02*
X019830Y007157D01*
X019690Y007297D02*
X019977Y007010D01*
X020383Y007010D01*
X020670Y007297D01*
X020670Y007703D01*
X020383Y007990D01*
X019977Y007990D01*
X019690Y007703D01*
X019690Y007297D01*
X019690Y007316D02*
X001486Y007316D01*
X001383Y007410D02*
X001670Y007697D01*
X001670Y008103D01*
X001383Y008390D01*
X000977Y008390D01*
X000690Y008103D01*
X000690Y007697D01*
X000977Y007410D01*
X001383Y007410D01*
X001447Y007474D02*
X019690Y007474D01*
X019690Y007633D02*
X001605Y007633D01*
X001670Y007791D02*
X019778Y007791D01*
X019937Y007950D02*
X001670Y007950D01*
X001665Y008108D02*
X019879Y008108D01*
X019977Y008010D02*
X020383Y008010D01*
X020670Y008297D01*
X020670Y008703D01*
X020383Y008990D01*
X019977Y008990D01*
X019690Y008703D01*
X019690Y008297D01*
X019977Y008010D01*
X019721Y008267D02*
X001506Y008267D01*
X001383Y008410D02*
X001670Y008697D01*
X001670Y009103D01*
X001383Y009390D01*
X000977Y009390D01*
X000690Y009103D01*
X000690Y008697D01*
X000977Y008410D01*
X001383Y008410D01*
X001398Y008425D02*
X003393Y008425D01*
X003234Y008584D02*
X001556Y008584D01*
X001670Y008742D02*
X003160Y008742D01*
X003160Y008901D02*
X001670Y008901D01*
X001670Y009059D02*
X003084Y009059D01*
X002926Y009218D02*
X001555Y009218D01*
X001397Y009376D02*
X002767Y009376D01*
X002609Y009535D02*
X001507Y009535D01*
X001383Y009410D02*
X001670Y009697D01*
X001670Y010103D01*
X001383Y010390D01*
X000977Y010390D01*
X000690Y010103D01*
X000690Y009697D01*
X000977Y009410D01*
X001383Y009410D01*
X001666Y009693D02*
X002450Y009693D01*
X002291Y009852D02*
X001670Y009852D01*
X001670Y010010D02*
X002133Y010010D01*
X001974Y010169D02*
X001604Y010169D01*
X001446Y010327D02*
X001816Y010327D01*
X001657Y010486D02*
X001458Y010486D01*
X000902Y010486D02*
X000660Y010486D01*
X000660Y010644D02*
X000743Y010644D01*
X000690Y010803D02*
X000660Y010803D01*
X000660Y010961D02*
X000690Y010961D01*
X000707Y011120D02*
X000660Y011120D01*
X000660Y011278D02*
X000865Y011278D01*
X000951Y011437D02*
X000660Y011437D01*
X000660Y011595D02*
X000792Y011595D01*
X000690Y011754D02*
X000660Y011754D01*
X000660Y011912D02*
X000690Y011912D01*
X000690Y012071D02*
X000660Y012071D01*
X000660Y012229D02*
X000816Y012229D01*
X000660Y012388D02*
X000975Y012388D01*
X000841Y012546D02*
X000660Y012546D01*
X000660Y012705D02*
X000690Y012705D01*
X000690Y012863D02*
X000660Y012863D01*
X000660Y013022D02*
X000690Y013022D01*
X000660Y013180D02*
X000767Y013180D01*
X000660Y013339D02*
X000926Y013339D01*
X000660Y013497D02*
X001970Y013497D01*
X001970Y013339D02*
X001434Y013339D01*
X001593Y013180D02*
X001970Y013180D01*
X001970Y013656D02*
X000660Y013656D01*
X000660Y013814D02*
X000889Y013814D01*
X000730Y013973D02*
X000660Y013973D01*
X001519Y012546D02*
X001730Y012546D01*
X001730Y012388D02*
X001385Y012388D01*
X001544Y012229D02*
X001730Y012229D01*
X001730Y012071D02*
X001670Y012071D01*
X001490Y011437D02*
X001409Y011437D01*
X001910Y011120D02*
X001983Y011120D01*
X001910Y010961D02*
X002142Y010961D01*
X002300Y010803D02*
X001934Y010803D01*
X002093Y010644D02*
X002459Y010644D01*
X002617Y010486D02*
X002251Y010486D01*
X002410Y010327D02*
X002776Y010327D01*
X002934Y010169D02*
X002568Y010169D01*
X002727Y010010D02*
X003093Y010010D01*
X003160Y009852D02*
X002885Y009852D01*
X003044Y009693D02*
X003160Y009693D01*
X003202Y009535D02*
X003283Y009535D01*
X003361Y009376D02*
X004370Y009376D01*
X004355Y009218D02*
X003845Y009218D01*
X004003Y009059D02*
X004197Y009059D01*
X004160Y008901D02*
X004040Y008901D01*
X004040Y008742D02*
X004160Y008742D01*
X004234Y008584D02*
X003966Y008584D01*
X003807Y008425D02*
X004393Y008425D01*
X004807Y008425D02*
X019690Y008425D01*
X019690Y008584D02*
X004966Y008584D01*
X005040Y008742D02*
X019729Y008742D01*
X019888Y008901D02*
X005040Y008901D01*
X005003Y009059D02*
X019928Y009059D01*
X019977Y009010D02*
X019690Y009297D01*
X019690Y009703D01*
X019977Y009990D01*
X020383Y009990D01*
X020670Y009703D01*
X020670Y009297D01*
X020383Y009010D01*
X019977Y009010D01*
X019770Y009218D02*
X004845Y009218D01*
X004790Y009376D02*
X019690Y009376D01*
X019690Y009535D02*
X004917Y009535D01*
X005040Y009693D02*
X019690Y009693D01*
X019839Y009852D02*
X005040Y009852D01*
X005040Y010010D02*
X019977Y010010D01*
X020383Y010010D01*
X020700Y010010D01*
X020700Y009852D02*
X020521Y009852D01*
X020383Y010010D02*
X020670Y010297D01*
X020670Y010703D01*
X020383Y010990D01*
X019977Y010990D01*
X019690Y010703D01*
X019690Y010297D01*
X019977Y010010D01*
X019819Y010169D02*
X004894Y010169D01*
X004790Y010327D02*
X019690Y010327D01*
X019690Y010486D02*
X004868Y010486D01*
X005026Y010644D02*
X019690Y010644D01*
X019790Y010803D02*
X005040Y010803D01*
X005040Y010961D02*
X019948Y010961D01*
X019868Y011120D02*
X005177Y011120D01*
X005335Y011278D02*
X019709Y011278D01*
X019690Y011437D02*
X005494Y011437D01*
X005652Y011595D02*
X019690Y011595D01*
X019669Y011754D02*
X005811Y011754D01*
X005969Y011912D02*
X019511Y011912D01*
X019352Y012071D02*
X006128Y012071D01*
X006286Y012229D02*
X008742Y012229D01*
X009218Y012229D02*
X019194Y012229D01*
X019035Y012388D02*
X009323Y012388D01*
X009340Y012546D02*
X018877Y012546D01*
X018718Y012705D02*
X009882Y012705D01*
X010179Y012863D02*
X018560Y012863D01*
X018401Y013022D02*
X010407Y013022D01*
X010460Y013180D02*
X018243Y013180D01*
X018084Y013339D02*
X010441Y013339D01*
X010332Y013497D02*
X017926Y013497D01*
X017767Y013656D02*
X005018Y013656D01*
X005040Y013814D02*
X017609Y013814D01*
X017450Y013973D02*
X005040Y013973D01*
X004951Y014131D02*
X009692Y014131D01*
X009533Y014290D02*
X004793Y014290D01*
X004782Y014440D02*
X005040Y014698D01*
X005040Y015062D01*
X004790Y015312D01*
X004790Y015448D01*
X005040Y015698D01*
X005040Y016062D01*
X004782Y016320D01*
X004418Y016320D01*
X004310Y016212D01*
X004310Y020578D01*
X004403Y020671D01*
X004470Y020832D01*
X004470Y021568D01*
X004403Y021729D01*
X004279Y021853D01*
X004118Y021920D01*
X003942Y021920D01*
X003781Y021853D01*
X003657Y021729D01*
X003590Y021568D01*
X003590Y020832D01*
X003657Y020671D01*
X003781Y020547D01*
X003890Y020502D01*
X003890Y016212D01*
X003782Y016320D01*
X003750Y016320D01*
X003750Y019547D01*
X003627Y019670D01*
X001670Y019670D01*
X001670Y019703D01*
X001383Y019990D01*
X000977Y019990D01*
X000690Y019703D01*
X000690Y019297D01*
X000977Y019010D01*
X001383Y019010D01*
X001623Y019250D01*
X003330Y019250D01*
X003330Y016232D01*
X003160Y016062D01*
X003160Y015698D01*
X003418Y015440D01*
X003782Y015440D01*
X004040Y015698D01*
X004040Y015730D01*
X004160Y015730D01*
X004160Y015698D01*
X004370Y015488D01*
X004370Y015272D01*
X004160Y015062D01*
X004160Y014698D01*
X004418Y014440D01*
X004782Y014440D01*
X004790Y014448D02*
X005963Y014448D01*
X005846Y014607D02*
X004949Y014607D01*
X005040Y014765D02*
X005820Y014765D01*
X005866Y014924D02*
X005040Y014924D01*
X005020Y015082D02*
X005970Y015082D01*
X005970Y015241D02*
X004862Y015241D01*
X004790Y015399D02*
X005970Y015399D01*
X005970Y015558D02*
X004900Y015558D01*
X005040Y015716D02*
X005970Y015716D01*
X005970Y015875D02*
X005040Y015875D01*
X005040Y016033D02*
X005970Y016033D01*
X005970Y016192D02*
X004911Y016192D01*
X004310Y016350D02*
X005970Y016350D01*
X005970Y016509D02*
X004310Y016509D01*
X004310Y016667D02*
X005970Y016667D01*
X005970Y016826D02*
X004310Y016826D01*
X004310Y016984D02*
X005970Y016984D01*
X005970Y017143D02*
X004310Y017143D01*
X004310Y017301D02*
X005970Y017301D01*
X005970Y017460D02*
X004310Y017460D01*
X004310Y017618D02*
X005970Y017618D01*
X005970Y017777D02*
X004310Y017777D01*
X004310Y017935D02*
X005970Y017935D01*
X005970Y018094D02*
X004310Y018094D01*
X004310Y018252D02*
X005970Y018252D01*
X005970Y018411D02*
X004310Y018411D01*
X004310Y018569D02*
X005970Y018569D01*
X005970Y018728D02*
X004310Y018728D01*
X004310Y018886D02*
X005970Y018886D01*
X005970Y019045D02*
X004310Y019045D01*
X004310Y019203D02*
X005970Y019203D01*
X005970Y019362D02*
X004310Y019362D01*
X004310Y019520D02*
X005970Y019520D01*
X005970Y019679D02*
X004310Y019679D01*
X004310Y019837D02*
X005970Y019837D01*
X005970Y019996D02*
X004310Y019996D01*
X004310Y020154D02*
X005970Y020154D01*
X005970Y020313D02*
X004310Y020313D01*
X004310Y020471D02*
X005970Y020471D01*
X005970Y020630D02*
X005362Y020630D01*
X005452Y020788D02*
X005970Y020788D01*
X006390Y020788D02*
X009755Y020788D01*
X009913Y020630D02*
X006390Y020630D01*
X006390Y020471D02*
X010072Y020471D01*
X010230Y020313D02*
X006390Y020313D01*
X006390Y020154D02*
X010389Y020154D01*
X010547Y019996D02*
X006390Y019996D01*
X006390Y019837D02*
X010706Y019837D01*
X010864Y019679D02*
X006390Y019679D01*
X006390Y019520D02*
X011023Y019520D01*
X011181Y019362D02*
X006390Y019362D01*
X006390Y019203D02*
X011340Y019203D01*
X011498Y019045D02*
X006390Y019045D01*
X006390Y018886D02*
X011657Y018886D01*
X011815Y018728D02*
X006390Y018728D01*
X006390Y018569D02*
X012454Y018569D01*
X012612Y018411D02*
X006390Y018411D01*
X006390Y018252D02*
X012771Y018252D01*
X012929Y018094D02*
X006390Y018094D01*
X006390Y017935D02*
X012983Y017935D01*
X013015Y017777D02*
X006390Y017777D01*
X006390Y017618D02*
X013124Y017618D01*
X013003Y017460D02*
X006390Y017460D01*
X006390Y017301D02*
X012844Y017301D01*
X012686Y017143D02*
X006390Y017143D01*
X006390Y016984D02*
X012527Y016984D01*
X012369Y016826D02*
X006390Y016826D01*
X006390Y016667D02*
X012210Y016667D01*
X012052Y016509D02*
X006390Y016509D01*
X006390Y016350D02*
X007956Y016350D01*
X008244Y016350D02*
X011893Y016350D01*
X011735Y016192D02*
X008419Y016192D01*
X008460Y016033D02*
X011576Y016033D01*
X011418Y015875D02*
X008542Y015875D01*
X008701Y015716D02*
X011259Y015716D01*
X011101Y015558D02*
X008859Y015558D01*
X009018Y015399D02*
X010942Y015399D01*
X010784Y015241D02*
X009176Y015241D01*
X009335Y015082D02*
X010465Y015082D01*
X010266Y014924D02*
X009493Y014924D01*
X009652Y014765D02*
X010220Y014765D01*
X010246Y014607D02*
X009810Y014607D01*
X009375Y014448D02*
X006397Y014448D01*
X006514Y014607D02*
X009216Y014607D01*
X009058Y014765D02*
X006540Y014765D01*
X006494Y014924D02*
X008899Y014924D01*
X008741Y015082D02*
X006390Y015082D01*
X006390Y015241D02*
X008582Y015241D01*
X008424Y015399D02*
X006390Y015399D01*
X006390Y015558D02*
X008265Y015558D01*
X007895Y015716D02*
X006390Y015716D01*
X004370Y015399D02*
X003338Y015399D01*
X003300Y015558D02*
X003179Y015558D01*
X003160Y015716D02*
X003021Y015716D01*
X003160Y015875D02*
X002862Y015875D01*
X002704Y016033D02*
X003160Y016033D01*
X003289Y016192D02*
X002545Y016192D01*
X002387Y016350D02*
X003330Y016350D01*
X003330Y016509D02*
X002228Y016509D01*
X002150Y016667D02*
X003330Y016667D01*
X003330Y016826D02*
X002150Y016826D01*
X002150Y016984D02*
X003330Y016984D01*
X003330Y017143D02*
X002150Y017143D01*
X002150Y017301D02*
X003330Y017301D01*
X003330Y017460D02*
X002150Y017460D01*
X002150Y017618D02*
X003330Y017618D01*
X003330Y017777D02*
X002150Y017777D01*
X002150Y017935D02*
X003330Y017935D01*
X003330Y018094D02*
X002150Y018094D01*
X002150Y018252D02*
X003330Y018252D01*
X003330Y018411D02*
X002150Y018411D01*
X002150Y018569D02*
X003330Y018569D01*
X003330Y018728D02*
X001645Y018728D01*
X001487Y018886D02*
X003330Y018886D01*
X003330Y019045D02*
X001417Y019045D01*
X001576Y019203D02*
X003330Y019203D01*
X003750Y019203D02*
X003890Y019203D01*
X003890Y019045D02*
X003750Y019045D01*
X003750Y018886D02*
X003890Y018886D01*
X003890Y018728D02*
X003750Y018728D01*
X003750Y018569D02*
X003890Y018569D01*
X003890Y018411D02*
X003750Y018411D01*
X003750Y018252D02*
X003890Y018252D01*
X003890Y018094D02*
X003750Y018094D01*
X003750Y017935D02*
X003890Y017935D01*
X003890Y017777D02*
X003750Y017777D01*
X003750Y017618D02*
X003890Y017618D01*
X003890Y017460D02*
X003750Y017460D01*
X003750Y017301D02*
X003890Y017301D01*
X003890Y017143D02*
X003750Y017143D01*
X003750Y016984D02*
X003890Y016984D01*
X003890Y016826D02*
X003750Y016826D01*
X003750Y016667D02*
X003890Y016667D01*
X003890Y016509D02*
X003750Y016509D01*
X003750Y016350D02*
X003890Y016350D01*
X004040Y015716D02*
X004160Y015716D01*
X004300Y015558D02*
X003900Y015558D01*
X003862Y015241D02*
X004338Y015241D01*
X004180Y015082D02*
X004020Y015082D01*
X004040Y014924D02*
X004160Y014924D01*
X004160Y014765D02*
X004040Y014765D01*
X003949Y014607D02*
X004251Y014607D01*
X004410Y014448D02*
X003790Y014448D01*
X003793Y014290D02*
X004407Y014290D01*
X004249Y014131D02*
X003951Y014131D01*
X004040Y013973D02*
X004160Y013973D01*
X004160Y013814D02*
X004040Y013814D01*
X004018Y013656D02*
X004182Y013656D01*
X004341Y013497D02*
X003859Y013497D01*
X003782Y013300D02*
X003418Y013300D01*
X003160Y013042D01*
X003160Y012678D01*
X003418Y012420D01*
X003782Y012420D01*
X004040Y012678D01*
X004040Y013042D01*
X003782Y013300D01*
X003902Y013180D02*
X004298Y013180D01*
X004370Y013339D02*
X002790Y013339D01*
X002790Y013497D02*
X003341Y013497D01*
X003182Y013656D02*
X002790Y013656D01*
X002790Y013814D02*
X003160Y013814D01*
X003130Y013973D02*
X002790Y013973D01*
X002790Y014131D02*
X002972Y014131D01*
X002813Y014290D02*
X002790Y014290D01*
X003090Y014607D02*
X003251Y014607D01*
X003249Y014448D02*
X003410Y014448D01*
X003160Y014765D02*
X002932Y014765D01*
X002773Y014924D02*
X003160Y014924D01*
X003061Y015082D02*
X002615Y015082D01*
X002456Y015241D02*
X002902Y015241D01*
X002744Y015399D02*
X002298Y015399D01*
X002139Y015558D02*
X002585Y015558D01*
X002427Y015716D02*
X001981Y015716D01*
X001910Y015875D02*
X002268Y015875D01*
X002110Y016033D02*
X001910Y016033D01*
X001910Y016192D02*
X001951Y016192D01*
X001490Y016033D02*
X001406Y016033D01*
X000954Y016033D02*
X000660Y016033D01*
X000660Y015875D02*
X000862Y015875D01*
X000703Y015716D02*
X000660Y015716D01*
X000660Y016192D02*
X000796Y016192D01*
X000690Y016350D02*
X000660Y016350D01*
X000660Y016509D02*
X000690Y016509D01*
X000690Y016667D02*
X000660Y016667D01*
X000660Y016826D02*
X000813Y016826D01*
X000660Y016984D02*
X000971Y016984D01*
X000845Y017143D02*
X000660Y017143D01*
X000660Y017301D02*
X000690Y017301D01*
X000690Y017460D02*
X000660Y017460D01*
X000660Y017618D02*
X000690Y017618D01*
X000660Y017777D02*
X000764Y017777D01*
X000660Y017935D02*
X000922Y017935D01*
X000894Y018094D02*
X000660Y018094D01*
X000660Y018252D02*
X000735Y018252D01*
X000690Y018411D02*
X000660Y018411D01*
X000660Y018569D02*
X000690Y018569D01*
X000715Y018728D02*
X000660Y018728D01*
X000660Y018886D02*
X000873Y018886D01*
X000943Y019045D02*
X000660Y019045D01*
X000660Y019203D02*
X000784Y019203D01*
X000690Y019362D02*
X000660Y019362D01*
X000660Y019520D02*
X000690Y019520D01*
X000690Y019679D02*
X000660Y019679D01*
X000660Y019837D02*
X000824Y019837D01*
X000660Y019996D02*
X003890Y019996D01*
X003890Y020154D02*
X001527Y020154D01*
X001670Y020297D02*
X001383Y020010D01*
X000977Y020010D01*
X000690Y020297D01*
X000690Y020703D01*
X000977Y020990D01*
X001383Y020990D01*
X001670Y020703D01*
X001670Y020297D01*
X001670Y020313D02*
X003890Y020313D01*
X003890Y020471D02*
X003136Y020471D01*
X003138Y020471D02*
X003207Y020494D01*
X003271Y020527D01*
X003330Y020569D01*
X003381Y020620D01*
X003423Y020679D01*
X003456Y020743D01*
X003479Y020812D01*
X003490Y020884D01*
X003490Y021190D01*
X003040Y021190D01*
X003040Y021210D01*
X003490Y021210D01*
X003490Y021516D01*
X003479Y021588D01*
X003456Y021657D01*
X003423Y021721D01*
X003381Y021780D01*
X003330Y021831D01*
X003271Y021873D01*
X003207Y021906D01*
X003138Y021929D01*
X003066Y021940D01*
X003040Y021940D01*
X003040Y021210D01*
X003020Y021210D01*
X003020Y021940D01*
X002994Y021940D01*
X002922Y021929D01*
X002853Y021906D01*
X002789Y021873D01*
X002730Y021831D01*
X002679Y021780D01*
X002637Y021721D01*
X002604Y021657D01*
X002581Y021588D01*
X002570Y021516D01*
X002570Y021210D01*
X003020Y021210D01*
X003020Y021190D01*
X003040Y021190D01*
X003040Y020460D01*
X003066Y020460D01*
X003138Y020471D01*
X003040Y020471D02*
X003020Y020471D01*
X003020Y020460D02*
X003020Y021190D01*
X002570Y021190D01*
X002570Y020884D01*
X002581Y020812D01*
X002604Y020743D01*
X002637Y020679D01*
X002679Y020620D01*
X002730Y020569D01*
X002789Y020527D01*
X002853Y020494D01*
X002922Y020471D01*
X002994Y020460D01*
X003020Y020460D01*
X002924Y020471D02*
X001670Y020471D01*
X001670Y020630D02*
X002672Y020630D01*
X002589Y020788D02*
X001585Y020788D01*
X001426Y020947D02*
X002570Y020947D01*
X002570Y021105D02*
X001478Y021105D01*
X001636Y021264D02*
X002570Y021264D01*
X002570Y021422D02*
X001670Y021422D01*
X001670Y021581D02*
X002580Y021581D01*
X002650Y021739D02*
X001634Y021739D01*
X001475Y021898D02*
X002836Y021898D01*
X003020Y021898D02*
X003040Y021898D01*
X003040Y021739D02*
X003020Y021739D01*
X003020Y021581D02*
X003040Y021581D01*
X003040Y021422D02*
X003020Y021422D01*
X003020Y021264D02*
X003040Y021264D01*
X003040Y021105D02*
X003020Y021105D01*
X003020Y020947D02*
X003040Y020947D01*
X003040Y020788D02*
X003020Y020788D01*
X003020Y020630D02*
X003040Y020630D01*
X003388Y020630D02*
X003698Y020630D01*
X003608Y020788D02*
X003471Y020788D01*
X003490Y020947D02*
X003590Y020947D01*
X003590Y021105D02*
X003490Y021105D01*
X003490Y021264D02*
X003590Y021264D01*
X003590Y021422D02*
X003490Y021422D01*
X003480Y021581D02*
X003595Y021581D01*
X003667Y021739D02*
X003410Y021739D01*
X003224Y021898D02*
X003888Y021898D01*
X004172Y021898D02*
X004888Y021898D01*
X004667Y021739D02*
X004393Y021739D01*
X004465Y021581D02*
X004595Y021581D01*
X004590Y021422D02*
X004470Y021422D01*
X004470Y021264D02*
X004590Y021264D01*
X004590Y021105D02*
X004470Y021105D01*
X004470Y020947D02*
X004590Y020947D01*
X004608Y020788D02*
X004452Y020788D01*
X004362Y020630D02*
X004698Y020630D01*
X005470Y021422D02*
X006238Y021422D01*
X006146Y021581D02*
X005465Y021581D01*
X005393Y021739D02*
X006104Y021739D01*
X006070Y021898D02*
X005172Y021898D01*
X005465Y022056D02*
X006070Y022056D01*
X006086Y022215D02*
X005782Y022215D01*
X006099Y022373D02*
X006128Y022373D01*
X006353Y021264D02*
X006357Y021264D01*
X006390Y021105D02*
X006528Y021105D01*
X006390Y020947D02*
X006861Y020947D01*
X007499Y020947D02*
X009596Y020947D01*
X009570Y021105D02*
X007832Y021105D01*
X008003Y021264D02*
X009570Y021264D01*
X009570Y021422D02*
X008122Y021422D01*
X008214Y021581D02*
X008409Y021581D01*
X008309Y021739D02*
X008256Y021739D01*
X008730Y021739D02*
X008750Y021739D01*
X008750Y021581D02*
X008730Y021581D01*
X008730Y021898D02*
X008750Y021898D01*
X008750Y022056D02*
X008730Y022056D01*
X009200Y022056D02*
X009300Y022056D01*
X009300Y021898D02*
X009200Y021898D01*
X009171Y021739D02*
X009330Y021739D01*
X009437Y021581D02*
X009071Y021581D01*
X009200Y022215D02*
X009300Y022215D01*
X009300Y022373D02*
X009200Y022373D01*
X013280Y017143D02*
X019845Y017143D01*
X019977Y017010D02*
X020383Y017010D01*
X020670Y017297D01*
X020670Y017703D01*
X020383Y017990D01*
X019977Y017990D01*
X019690Y017703D01*
X019690Y017297D01*
X019977Y017010D01*
X019977Y016990D02*
X019690Y016703D01*
X019690Y016297D01*
X019977Y016010D01*
X020383Y016010D01*
X020670Y016297D01*
X020670Y016703D01*
X020383Y016990D01*
X019977Y016990D01*
X019971Y016984D02*
X013121Y016984D01*
X012963Y016826D02*
X019813Y016826D01*
X019690Y016667D02*
X012804Y016667D01*
X012646Y016509D02*
X019690Y016509D01*
X019690Y016350D02*
X012487Y016350D01*
X012329Y016192D02*
X019796Y016192D01*
X019954Y016033D02*
X012170Y016033D01*
X012012Y015875D02*
X020700Y015875D01*
X020700Y016033D02*
X020406Y016033D01*
X020564Y016192D02*
X020700Y016192D01*
X020700Y016350D02*
X020670Y016350D01*
X020670Y016509D02*
X020700Y016509D01*
X020700Y016667D02*
X020670Y016667D01*
X020700Y016826D02*
X020547Y016826D01*
X020700Y016984D02*
X020389Y016984D01*
X020515Y017143D02*
X020700Y017143D01*
X020700Y017301D02*
X020670Y017301D01*
X020670Y017460D02*
X020700Y017460D01*
X020700Y017618D02*
X020670Y017618D01*
X020700Y017777D02*
X020596Y017777D01*
X020700Y017935D02*
X020438Y017935D01*
X020383Y018010D02*
X020670Y018297D01*
X020670Y018703D01*
X020383Y018990D01*
X019977Y018990D01*
X019690Y018703D01*
X019690Y018297D01*
X019977Y018010D01*
X020383Y018010D01*
X020466Y018094D02*
X020700Y018094D01*
X020700Y018252D02*
X020625Y018252D01*
X020670Y018411D02*
X020700Y018411D01*
X020700Y018569D02*
X020670Y018569D01*
X020645Y018728D02*
X020700Y018728D01*
X020700Y018886D02*
X020487Y018886D01*
X020383Y019010D02*
X020670Y019297D01*
X020670Y019703D01*
X020383Y019990D01*
X019977Y019990D01*
X019690Y019703D01*
X019690Y019297D01*
X019977Y019010D01*
X020383Y019010D01*
X020417Y019045D02*
X020700Y019045D01*
X020700Y019203D02*
X020576Y019203D01*
X020670Y019362D02*
X020700Y019362D01*
X020700Y019520D02*
X020670Y019520D01*
X020670Y019679D02*
X020700Y019679D01*
X020700Y019837D02*
X020536Y019837D01*
X020700Y019996D02*
X017294Y019996D01*
X017294Y020114D02*
X017161Y020435D01*
X016915Y020681D01*
X016594Y020814D01*
X016246Y020814D01*
X015925Y020681D01*
X015679Y020435D01*
X015546Y020114D01*
X015546Y019766D01*
X015679Y019445D01*
X015925Y019199D01*
X016246Y019066D01*
X016594Y019066D01*
X016915Y019199D01*
X017161Y019445D01*
X017294Y019766D01*
X017294Y020114D01*
X017277Y020154D02*
X019833Y020154D01*
X019690Y020297D02*
X019977Y020010D01*
X020383Y020010D01*
X020670Y020297D01*
X020670Y020703D01*
X020383Y020990D01*
X019977Y020990D01*
X019690Y020703D01*
X019690Y020297D01*
X019690Y020313D02*
X017211Y020313D01*
X017125Y020471D02*
X019690Y020471D01*
X019690Y020630D02*
X016966Y020630D01*
X016656Y020788D02*
X019775Y020788D01*
X019934Y020947D02*
X018462Y020947D01*
X018815Y021105D02*
X019882Y021105D01*
X019977Y021010D02*
X020383Y021010D01*
X020670Y021297D01*
X020670Y021703D01*
X020383Y021990D01*
X019977Y021990D01*
X019690Y021703D01*
X019690Y021297D01*
X019977Y021010D01*
X019724Y021264D02*
X018993Y021264D01*
X019116Y021422D02*
X019690Y021422D01*
X019690Y021581D02*
X019208Y021581D01*
X019254Y021739D02*
X019726Y021739D01*
X019885Y021898D02*
X019290Y021898D01*
X019290Y022056D02*
X019995Y022056D01*
X019678Y022215D02*
X019277Y022215D01*
X019234Y022373D02*
X019361Y022373D01*
X020475Y021898D02*
X020700Y021898D01*
X020700Y021739D02*
X020634Y021739D01*
X020670Y021581D02*
X020700Y021581D01*
X020700Y021422D02*
X020670Y021422D01*
X020700Y021264D02*
X020636Y021264D01*
X020700Y021105D02*
X020478Y021105D01*
X020426Y020947D02*
X020700Y020947D01*
X020700Y020788D02*
X020585Y020788D01*
X020670Y020630D02*
X020700Y020630D01*
X020700Y020471D02*
X020670Y020471D01*
X020670Y020313D02*
X020700Y020313D01*
X020700Y020154D02*
X020527Y020154D01*
X019824Y019837D02*
X017294Y019837D01*
X017257Y019679D02*
X019690Y019679D01*
X019690Y019520D02*
X017192Y019520D01*
X017077Y019362D02*
X019690Y019362D01*
X019784Y019203D02*
X016919Y019203D01*
X015921Y019203D02*
X014630Y019203D01*
X014630Y019045D02*
X019943Y019045D01*
X019873Y018886D02*
X014630Y018886D01*
X014630Y018728D02*
X019715Y018728D01*
X019690Y018569D02*
X014630Y018569D01*
X014630Y018411D02*
X019690Y018411D01*
X019735Y018252D02*
X014726Y018252D01*
X014830Y018094D02*
X019894Y018094D01*
X019922Y017935D02*
X014857Y017935D01*
X014825Y017777D02*
X019764Y017777D01*
X019690Y017618D02*
X014716Y017618D01*
X014237Y017460D02*
X019690Y017460D01*
X019690Y017301D02*
X014078Y017301D01*
X014630Y019362D02*
X015763Y019362D01*
X015648Y019520D02*
X014630Y019520D01*
X014630Y019679D02*
X015583Y019679D01*
X015546Y019837D02*
X014630Y019837D01*
X014630Y019996D02*
X015546Y019996D01*
X015563Y020154D02*
X014630Y020154D01*
X014630Y020313D02*
X015629Y020313D01*
X015715Y020471D02*
X014630Y020471D01*
X014630Y020630D02*
X015874Y020630D01*
X016184Y020788D02*
X014630Y020788D01*
X014630Y020947D02*
X017898Y020947D01*
X017545Y021105D02*
X014630Y021105D01*
X014630Y021264D02*
X017367Y021264D01*
X017244Y021422D02*
X014630Y021422D01*
X014630Y021581D02*
X017152Y021581D01*
X017106Y021739D02*
X014630Y021739D01*
X014630Y021898D02*
X017070Y021898D01*
X017070Y022056D02*
X014630Y022056D01*
X014630Y022215D02*
X017083Y022215D01*
X017126Y022373D02*
X014524Y022373D01*
X011853Y015716D02*
X020700Y015716D01*
X020700Y015558D02*
X011695Y015558D01*
X011536Y015399D02*
X020700Y015399D01*
X020700Y015241D02*
X011378Y015241D01*
X011219Y015082D02*
X020700Y015082D01*
X020700Y014924D02*
X020449Y014924D01*
X020383Y014990D02*
X019977Y014990D01*
X019690Y014703D01*
X019690Y014297D01*
X019977Y014010D01*
X020383Y014010D01*
X020670Y014297D01*
X020670Y014703D01*
X020383Y014990D01*
X020608Y014765D02*
X020700Y014765D01*
X020700Y014607D02*
X020670Y014607D01*
X020670Y014448D02*
X020700Y014448D01*
X020700Y014290D02*
X020662Y014290D01*
X020700Y014131D02*
X020504Y014131D01*
X020429Y013973D02*
X020700Y013973D01*
X020700Y013814D02*
X020587Y013814D01*
X020690Y013656D02*
X020700Y013656D01*
X020700Y013497D02*
X020198Y013497D01*
X020198Y013482D02*
X020198Y012518D01*
X020162Y012518D01*
X020162Y012990D01*
X020162Y013482D01*
X020198Y013482D01*
X020162Y013497D02*
X018520Y013497D01*
X018678Y013339D02*
X019670Y013339D01*
X019779Y013180D02*
X018837Y013180D01*
X018995Y013022D02*
X019937Y013022D01*
X019822Y012863D02*
X019154Y012863D01*
X019312Y012705D02*
X019670Y012705D01*
X019670Y012546D02*
X019471Y012546D01*
X019629Y012388D02*
X019670Y012388D01*
X020162Y012388D02*
X020198Y012388D01*
X020198Y012546D02*
X020162Y012546D01*
X020162Y012705D02*
X020198Y012705D01*
X020198Y012863D02*
X020162Y012863D01*
X020162Y013022D02*
X020198Y013022D01*
X020198Y013180D02*
X020162Y013180D01*
X020162Y013339D02*
X020198Y013339D01*
X020198Y013656D02*
X020162Y013656D01*
X020162Y013814D02*
X020198Y013814D01*
X020198Y013973D02*
X020162Y013973D01*
X019931Y013973D02*
X018044Y013973D01*
X017886Y014131D02*
X019856Y014131D01*
X019698Y014290D02*
X017727Y014290D01*
X017569Y014448D02*
X019690Y014448D01*
X019690Y014607D02*
X010914Y014607D01*
X010940Y014765D02*
X019752Y014765D01*
X019911Y014924D02*
X011061Y014924D01*
X009868Y013497D02*
X004859Y013497D01*
X004790Y013339D02*
X009759Y013339D01*
X009740Y013180D02*
X004902Y013180D01*
X004908Y012546D02*
X006009Y012546D01*
X005851Y012388D02*
X004790Y012388D01*
X004853Y012229D02*
X005692Y012229D01*
X005534Y012071D02*
X005012Y012071D01*
X005040Y011912D02*
X005375Y011912D01*
X005217Y011754D02*
X005040Y011754D01*
X005058Y011595D02*
X004957Y011595D01*
X004900Y011437D02*
X004799Y011437D01*
X004401Y011437D02*
X004340Y011437D01*
X004390Y011278D02*
X004416Y011278D01*
X004243Y011595D02*
X004182Y011595D01*
X004160Y011754D02*
X004040Y011754D01*
X004040Y011912D02*
X004160Y011912D01*
X004188Y012071D02*
X004012Y012071D01*
X003853Y012229D02*
X004347Y012229D01*
X004370Y012388D02*
X002790Y012388D01*
X002790Y012546D02*
X003292Y012546D01*
X003160Y012705D02*
X002790Y012705D01*
X002790Y012863D02*
X003160Y012863D01*
X003160Y013022D02*
X002790Y013022D01*
X002790Y013180D02*
X003298Y013180D01*
X004040Y013022D02*
X004160Y013022D01*
X004160Y012863D02*
X004040Y012863D01*
X004040Y012705D02*
X004160Y012705D01*
X004292Y012546D02*
X003908Y012546D01*
X003347Y012229D02*
X002790Y012229D01*
X002790Y012071D02*
X003188Y012071D01*
X003160Y011912D02*
X002825Y011912D01*
X002983Y011754D02*
X003160Y011754D01*
X003142Y011595D02*
X003243Y011595D01*
X003300Y011437D02*
X003401Y011437D01*
X003784Y011278D02*
X003905Y011278D01*
X003943Y011120D02*
X003970Y011120D01*
X003894Y010169D02*
X004306Y010169D01*
X004160Y010010D02*
X004040Y010010D01*
X004040Y009852D02*
X004160Y009852D01*
X004160Y009693D02*
X004040Y009693D01*
X003917Y009535D02*
X004283Y009535D01*
X001162Y007410D02*
X001162Y006918D01*
X000670Y006918D01*
X000670Y007111D01*
X000969Y007410D01*
X001162Y007410D01*
X001162Y007316D02*
X001198Y007316D01*
X001198Y007157D02*
X001162Y007157D01*
X001162Y006999D02*
X001198Y006999D01*
X001198Y006840D02*
X001162Y006840D01*
X001162Y006682D02*
X001198Y006682D01*
X001198Y006523D02*
X001162Y006523D01*
X000952Y006365D02*
X000660Y006365D01*
X000660Y006523D02*
X000836Y006523D01*
X000677Y006682D02*
X000660Y006682D01*
X000660Y006840D02*
X000670Y006840D01*
X000660Y006999D02*
X000670Y006999D01*
X000660Y007157D02*
X000716Y007157D01*
X000660Y007316D02*
X000874Y007316D01*
X000913Y007474D02*
X000660Y007474D01*
X000660Y007633D02*
X000755Y007633D01*
X000690Y007791D02*
X000660Y007791D01*
X000660Y007950D02*
X000690Y007950D01*
X000695Y008108D02*
X000660Y008108D01*
X000660Y008267D02*
X000854Y008267D01*
X000962Y008425D02*
X000660Y008425D01*
X000660Y008584D02*
X000804Y008584D01*
X000690Y008742D02*
X000660Y008742D01*
X000660Y008901D02*
X000690Y008901D01*
X000690Y009059D02*
X000660Y009059D01*
X000660Y009218D02*
X000805Y009218D01*
X000660Y009376D02*
X000963Y009376D01*
X000853Y009535D02*
X000660Y009535D01*
X000660Y009693D02*
X000694Y009693D01*
X000690Y009852D02*
X000660Y009852D01*
X000660Y010010D02*
X000690Y010010D01*
X000660Y010169D02*
X000756Y010169D01*
X000660Y010327D02*
X000914Y010327D01*
X000793Y006206D02*
X000660Y006206D01*
X000660Y006048D02*
X000690Y006048D01*
X000690Y005889D02*
X000660Y005889D01*
X000660Y005731D02*
X000690Y005731D01*
X000660Y005572D02*
X000815Y005572D01*
X000660Y005414D02*
X000974Y005414D01*
X000977Y005390D02*
X000690Y005103D01*
X000690Y004697D01*
X000977Y004410D01*
X001383Y004410D01*
X001670Y004697D01*
X001670Y005103D01*
X001383Y005390D01*
X000977Y005390D01*
X000842Y005255D02*
X000660Y005255D01*
X000660Y005097D02*
X000690Y005097D01*
X000690Y004938D02*
X000660Y004938D01*
X000660Y004780D02*
X000690Y004780D01*
X000660Y004621D02*
X000766Y004621D01*
X000660Y004463D02*
X000925Y004463D01*
X000977Y004390D02*
X000690Y004103D01*
X000690Y003697D01*
X000977Y003410D01*
X001383Y003410D01*
X001670Y003697D01*
X001670Y004103D01*
X001383Y004390D01*
X000977Y004390D01*
X000891Y004304D02*
X000660Y004304D01*
X000660Y004146D02*
X000733Y004146D01*
X000690Y003987D02*
X000660Y003987D01*
X000660Y003829D02*
X000690Y003829D01*
X000660Y003670D02*
X000717Y003670D01*
X000660Y003512D02*
X000876Y003512D01*
X000660Y003353D02*
X003560Y003353D01*
X003560Y003195D02*
X000660Y003195D01*
X000660Y003036D02*
X000758Y003036D01*
X001484Y003512D02*
X003560Y003512D01*
X003560Y003670D02*
X001643Y003670D01*
X001670Y003829D02*
X003560Y003829D01*
X003560Y003906D02*
X003560Y003174D01*
X003654Y003080D01*
X004386Y003080D01*
X004480Y003174D01*
X004480Y003906D01*
X004386Y004000D01*
X003654Y004000D01*
X003560Y003906D01*
X003641Y003987D02*
X001670Y003987D01*
X001627Y004146D02*
X003588Y004146D01*
X003560Y004174D02*
X003654Y004080D01*
X004386Y004080D01*
X004480Y004174D01*
X004480Y004906D01*
X004386Y005000D01*
X003654Y005000D01*
X003560Y004906D01*
X003560Y004174D01*
X003560Y004304D02*
X001469Y004304D01*
X001435Y004463D02*
X003560Y004463D01*
X003560Y004621D02*
X001594Y004621D01*
X001670Y004780D02*
X003560Y004780D01*
X003592Y004938D02*
X001670Y004938D01*
X001670Y005097D02*
X003637Y005097D01*
X003654Y005080D02*
X003560Y005174D01*
X003560Y005906D01*
X003654Y006000D01*
X004386Y006000D01*
X004480Y005906D01*
X004480Y005174D01*
X004386Y005080D01*
X003654Y005080D01*
X003560Y005255D02*
X001518Y005255D01*
X001386Y005414D02*
X003560Y005414D01*
X003560Y005572D02*
X001545Y005572D01*
X001670Y005731D02*
X003560Y005731D01*
X003560Y005889D02*
X001670Y005889D01*
X004480Y005889D02*
X004560Y005889D01*
X004560Y005906D02*
X004560Y005174D01*
X004654Y005080D01*
X005386Y005080D01*
X005480Y005174D01*
X005480Y005906D01*
X005386Y006000D01*
X004654Y006000D01*
X004560Y005906D01*
X004560Y005731D02*
X004480Y005731D01*
X004480Y005572D02*
X004560Y005572D01*
X004560Y005414D02*
X004480Y005414D01*
X004480Y005255D02*
X004560Y005255D01*
X004637Y005097D02*
X004403Y005097D01*
X004448Y004938D02*
X004592Y004938D01*
X004560Y004906D02*
X004560Y004174D01*
X004654Y004080D01*
X005386Y004080D01*
X005480Y004174D01*
X005480Y004906D01*
X005386Y005000D01*
X004654Y005000D01*
X004560Y004906D01*
X004560Y004780D02*
X004480Y004780D01*
X004480Y004621D02*
X004560Y004621D01*
X004560Y004463D02*
X004480Y004463D01*
X004480Y004304D02*
X004560Y004304D01*
X004588Y004146D02*
X004452Y004146D01*
X004399Y003987D02*
X004641Y003987D01*
X004654Y004000D02*
X004560Y003906D01*
X004560Y003174D01*
X004654Y003080D01*
X005386Y003080D01*
X005480Y003174D01*
X005480Y003906D01*
X005386Y004000D01*
X004654Y004000D01*
X004560Y003829D02*
X004480Y003829D01*
X004480Y003670D02*
X004560Y003670D01*
X004560Y003512D02*
X004480Y003512D01*
X004480Y003353D02*
X004560Y003353D01*
X004560Y003195D02*
X004480Y003195D01*
X004654Y003000D02*
X004560Y002906D01*
X004560Y002174D01*
X004654Y002080D01*
X005386Y002080D01*
X005480Y002174D01*
X005480Y002906D01*
X005386Y003000D01*
X004654Y003000D01*
X004560Y002878D02*
X004480Y002878D01*
X004480Y002719D02*
X004560Y002719D01*
X004560Y002561D02*
X004480Y002561D01*
X004480Y002402D02*
X004560Y002402D01*
X004560Y002244D02*
X004480Y002244D01*
X004391Y002085D02*
X004649Y002085D01*
X004654Y002000D02*
X004560Y001906D01*
X004560Y001174D01*
X004654Y001080D01*
X005386Y001080D01*
X005480Y001174D01*
X005480Y001906D01*
X005386Y002000D01*
X004654Y002000D01*
X004580Y001927D02*
X004460Y001927D01*
X004480Y001768D02*
X004560Y001768D01*
X004560Y001610D02*
X004480Y001610D01*
X004480Y001451D02*
X004560Y001451D01*
X004560Y001293D02*
X004480Y001293D01*
X004440Y001134D02*
X004600Y001134D01*
X005440Y001134D02*
X005600Y001134D01*
X005560Y001174D02*
X005654Y001080D01*
X006386Y001080D01*
X006480Y001174D01*
X006480Y001906D01*
X006386Y002000D01*
X005654Y002000D01*
X005560Y001906D01*
X005560Y001174D01*
X005560Y001293D02*
X005480Y001293D01*
X005480Y001451D02*
X005560Y001451D01*
X005560Y001610D02*
X005480Y001610D01*
X005480Y001768D02*
X005560Y001768D01*
X005580Y001927D02*
X005460Y001927D01*
X005391Y002085D02*
X005649Y002085D01*
X005654Y002080D02*
X006386Y002080D01*
X006480Y002174D01*
X006480Y002906D01*
X006386Y003000D01*
X005654Y003000D01*
X005560Y002906D01*
X005560Y002174D01*
X005654Y002080D01*
X005560Y002244D02*
X005480Y002244D01*
X005480Y002402D02*
X005560Y002402D01*
X005560Y002561D02*
X005480Y002561D01*
X005480Y002719D02*
X005560Y002719D01*
X005560Y002878D02*
X005480Y002878D01*
X005654Y003080D02*
X005560Y003174D01*
X005560Y003906D01*
X005654Y004000D01*
X006386Y004000D01*
X006480Y003906D01*
X006480Y003174D01*
X006386Y003080D01*
X005654Y003080D01*
X005560Y003195D02*
X005480Y003195D01*
X005480Y003353D02*
X005560Y003353D01*
X005560Y003512D02*
X005480Y003512D01*
X005480Y003670D02*
X005560Y003670D01*
X005560Y003829D02*
X005480Y003829D01*
X005399Y003987D02*
X005641Y003987D01*
X005654Y004080D02*
X006386Y004080D01*
X006480Y004174D01*
X006480Y004906D01*
X006386Y005000D01*
X005654Y005000D01*
X005560Y004906D01*
X005560Y004174D01*
X005654Y004080D01*
X005588Y004146D02*
X005452Y004146D01*
X005480Y004304D02*
X005560Y004304D01*
X005560Y004463D02*
X005480Y004463D01*
X005480Y004621D02*
X005560Y004621D01*
X005560Y004780D02*
X005480Y004780D01*
X005448Y004938D02*
X005592Y004938D01*
X005654Y005080D02*
X005560Y005174D01*
X005560Y005906D01*
X005654Y006000D01*
X006386Y006000D01*
X006480Y005906D01*
X006480Y005174D01*
X006386Y005080D01*
X005654Y005080D01*
X005637Y005097D02*
X005403Y005097D01*
X005480Y005255D02*
X005560Y005255D01*
X005560Y005414D02*
X005480Y005414D01*
X005480Y005572D02*
X005560Y005572D01*
X005560Y005731D02*
X005480Y005731D01*
X005480Y005889D02*
X005560Y005889D01*
X006480Y005889D02*
X006560Y005889D01*
X006560Y005906D02*
X006560Y005174D01*
X006654Y005080D01*
X007386Y005080D01*
X007480Y005174D01*
X007480Y005906D01*
X007386Y006000D01*
X006654Y006000D01*
X006560Y005906D01*
X006560Y005731D02*
X006480Y005731D01*
X006480Y005572D02*
X006560Y005572D01*
X006560Y005414D02*
X006480Y005414D01*
X006480Y005255D02*
X006560Y005255D01*
X006637Y005097D02*
X006403Y005097D01*
X006448Y004938D02*
X006592Y004938D01*
X006560Y004906D02*
X006560Y004174D01*
X006654Y004080D01*
X007386Y004080D01*
X007480Y004174D01*
X007480Y004906D01*
X007386Y005000D01*
X006654Y005000D01*
X006560Y004906D01*
X006560Y004780D02*
X006480Y004780D01*
X006480Y004621D02*
X006560Y004621D01*
X006560Y004463D02*
X006480Y004463D01*
X006480Y004304D02*
X006560Y004304D01*
X006588Y004146D02*
X006452Y004146D01*
X006399Y003987D02*
X006641Y003987D01*
X006654Y004000D02*
X006560Y003906D01*
X006560Y003174D01*
X006654Y003080D01*
X007386Y003080D01*
X007480Y003174D01*
X007480Y003906D01*
X007386Y004000D01*
X006654Y004000D01*
X006560Y003829D02*
X006480Y003829D01*
X006480Y003670D02*
X006560Y003670D01*
X006560Y003512D02*
X006480Y003512D01*
X006480Y003353D02*
X006560Y003353D01*
X006560Y003195D02*
X006480Y003195D01*
X006654Y003000D02*
X006560Y002906D01*
X006560Y002174D01*
X006654Y002080D01*
X007386Y002080D01*
X007480Y002174D01*
X007480Y002906D01*
X007386Y003000D01*
X006654Y003000D01*
X006560Y002878D02*
X006480Y002878D01*
X006480Y002719D02*
X006560Y002719D01*
X006560Y002561D02*
X006480Y002561D01*
X006480Y002402D02*
X006560Y002402D01*
X006560Y002244D02*
X006480Y002244D01*
X006391Y002085D02*
X006649Y002085D01*
X006654Y002000D02*
X006560Y001906D01*
X006560Y001174D01*
X006654Y001080D01*
X007386Y001080D01*
X007480Y001174D01*
X007480Y001906D01*
X007386Y002000D01*
X006654Y002000D01*
X006580Y001927D02*
X006460Y001927D01*
X006480Y001768D02*
X006560Y001768D01*
X006560Y001610D02*
X006480Y001610D01*
X006480Y001451D02*
X006560Y001451D01*
X006560Y001293D02*
X006480Y001293D01*
X006440Y001134D02*
X006600Y001134D01*
X007440Y001134D02*
X007600Y001134D01*
X007560Y001174D02*
X007654Y001080D01*
X008386Y001080D01*
X008480Y001174D01*
X008480Y001906D01*
X008386Y002000D01*
X007654Y002000D01*
X007560Y001906D01*
X007560Y001174D01*
X007560Y001293D02*
X007480Y001293D01*
X007480Y001451D02*
X007560Y001451D01*
X007560Y001610D02*
X007480Y001610D01*
X007480Y001768D02*
X007560Y001768D01*
X007580Y001927D02*
X007460Y001927D01*
X007391Y002085D02*
X007649Y002085D01*
X007654Y002080D02*
X008386Y002080D01*
X008480Y002174D01*
X008480Y002906D01*
X008386Y003000D01*
X007654Y003000D01*
X007560Y002906D01*
X007560Y002174D01*
X007654Y002080D01*
X007560Y002244D02*
X007480Y002244D01*
X007480Y002402D02*
X007560Y002402D01*
X007560Y002561D02*
X007480Y002561D01*
X007480Y002719D02*
X007560Y002719D01*
X007560Y002878D02*
X007480Y002878D01*
X007654Y003080D02*
X007560Y003174D01*
X007560Y003906D01*
X007654Y004000D01*
X008386Y004000D01*
X008480Y003906D01*
X008480Y003174D01*
X008386Y003080D01*
X007654Y003080D01*
X007560Y003195D02*
X007480Y003195D01*
X007480Y003353D02*
X007560Y003353D01*
X007560Y003512D02*
X007480Y003512D01*
X007480Y003670D02*
X007560Y003670D01*
X007560Y003829D02*
X007480Y003829D01*
X007399Y003987D02*
X007641Y003987D01*
X007654Y004080D02*
X008386Y004080D01*
X008480Y004174D01*
X008480Y004906D01*
X008386Y005000D01*
X007654Y005000D01*
X007560Y004906D01*
X007560Y004174D01*
X007654Y004080D01*
X007588Y004146D02*
X007452Y004146D01*
X007480Y004304D02*
X007560Y004304D01*
X007560Y004463D02*
X007480Y004463D01*
X007480Y004621D02*
X007560Y004621D01*
X007560Y004780D02*
X007480Y004780D01*
X007448Y004938D02*
X007592Y004938D01*
X007654Y005080D02*
X008386Y005080D01*
X008480Y005174D01*
X008480Y005906D01*
X008386Y006000D01*
X007654Y006000D01*
X007560Y005906D01*
X007560Y005174D01*
X007654Y005080D01*
X007637Y005097D02*
X007403Y005097D01*
X007480Y005255D02*
X007560Y005255D01*
X007560Y005414D02*
X007480Y005414D01*
X007480Y005572D02*
X007560Y005572D01*
X007560Y005731D02*
X007480Y005731D01*
X007480Y005889D02*
X007560Y005889D01*
X008403Y005097D02*
X008677Y005097D01*
X008694Y005080D02*
X009426Y005080D01*
X009520Y005174D01*
X009520Y005906D01*
X009426Y006000D01*
X008694Y006000D01*
X008600Y005906D01*
X008600Y005174D01*
X008694Y005080D01*
X008694Y005000D02*
X008600Y004906D01*
X008600Y004174D01*
X008694Y004080D01*
X009426Y004080D01*
X009520Y004174D01*
X009520Y004906D01*
X009426Y005000D01*
X008694Y005000D01*
X008632Y004938D02*
X008448Y004938D01*
X008480Y004780D02*
X008600Y004780D01*
X008600Y004621D02*
X008480Y004621D01*
X008480Y004463D02*
X008600Y004463D01*
X008600Y004304D02*
X008480Y004304D01*
X008452Y004146D02*
X008628Y004146D01*
X008694Y004000D02*
X008600Y003906D01*
X008600Y003174D01*
X008694Y003080D01*
X009426Y003080D01*
X009520Y003174D01*
X009520Y003906D01*
X009426Y004000D01*
X008694Y004000D01*
X008681Y003987D02*
X008399Y003987D01*
X008480Y003829D02*
X008600Y003829D01*
X008600Y003670D02*
X008480Y003670D01*
X008480Y003512D02*
X008600Y003512D01*
X008600Y003353D02*
X008480Y003353D01*
X008480Y003195D02*
X008600Y003195D01*
X008694Y003000D02*
X008600Y002906D01*
X008600Y002174D01*
X008694Y002080D01*
X009426Y002080D01*
X009520Y002174D01*
X009520Y002906D01*
X009426Y003000D01*
X008694Y003000D01*
X008600Y002878D02*
X008480Y002878D01*
X008480Y002719D02*
X008600Y002719D01*
X008600Y002561D02*
X008480Y002561D01*
X008480Y002402D02*
X008600Y002402D01*
X008600Y002244D02*
X008480Y002244D01*
X008391Y002085D02*
X008689Y002085D01*
X008694Y002000D02*
X008600Y001906D01*
X008600Y001174D01*
X008694Y001080D01*
X009426Y001080D01*
X009520Y001174D01*
X009520Y001906D01*
X009426Y002000D01*
X008694Y002000D01*
X008620Y001927D02*
X008460Y001927D01*
X008480Y001768D02*
X008600Y001768D01*
X008600Y001610D02*
X008480Y001610D01*
X008480Y001451D02*
X008600Y001451D01*
X008600Y001293D02*
X008480Y001293D01*
X008440Y001134D02*
X008640Y001134D01*
X009480Y001134D02*
X009640Y001134D01*
X009600Y001174D02*
X009694Y001080D01*
X010426Y001080D01*
X010520Y001174D01*
X010520Y001906D01*
X010426Y002000D01*
X009694Y002000D01*
X009600Y001906D01*
X009600Y001174D01*
X009600Y001293D02*
X009520Y001293D01*
X009520Y001451D02*
X009600Y001451D01*
X009600Y001610D02*
X009520Y001610D01*
X009520Y001768D02*
X009600Y001768D01*
X009620Y001927D02*
X009500Y001927D01*
X009431Y002085D02*
X009689Y002085D01*
X009694Y002080D02*
X009600Y002174D01*
X009600Y002906D01*
X009694Y003000D01*
X010426Y003000D01*
X010520Y002906D01*
X010520Y002174D01*
X010426Y002080D01*
X009694Y002080D01*
X009600Y002244D02*
X009520Y002244D01*
X009520Y002402D02*
X009600Y002402D01*
X009600Y002561D02*
X009520Y002561D01*
X009520Y002719D02*
X009600Y002719D01*
X009600Y002878D02*
X009520Y002878D01*
X009694Y003080D02*
X010426Y003080D01*
X010520Y003174D01*
X010520Y003906D01*
X010426Y004000D01*
X009694Y004000D01*
X009600Y003906D01*
X009600Y003174D01*
X009694Y003080D01*
X009600Y003195D02*
X009520Y003195D01*
X009520Y003353D02*
X009600Y003353D01*
X009600Y003512D02*
X009520Y003512D01*
X009520Y003670D02*
X009600Y003670D01*
X009600Y003829D02*
X009520Y003829D01*
X009439Y003987D02*
X009681Y003987D01*
X009694Y004080D02*
X010426Y004080D01*
X010520Y004174D01*
X010520Y004906D01*
X010426Y005000D01*
X009694Y005000D01*
X009600Y004906D01*
X009600Y004174D01*
X009694Y004080D01*
X009628Y004146D02*
X009492Y004146D01*
X009520Y004304D02*
X009600Y004304D01*
X009600Y004463D02*
X009520Y004463D01*
X009520Y004621D02*
X009600Y004621D01*
X009600Y004780D02*
X009520Y004780D01*
X009488Y004938D02*
X009632Y004938D01*
X009694Y005080D02*
X010426Y005080D01*
X010520Y005174D01*
X010520Y005906D01*
X010426Y006000D01*
X009694Y006000D01*
X009600Y005906D01*
X009600Y005174D01*
X009694Y005080D01*
X009677Y005097D02*
X009443Y005097D01*
X009520Y005255D02*
X009600Y005255D01*
X009600Y005414D02*
X009520Y005414D01*
X009520Y005572D02*
X009600Y005572D01*
X009600Y005731D02*
X009520Y005731D01*
X009520Y005889D02*
X009600Y005889D01*
X010520Y005889D02*
X010600Y005889D01*
X010600Y005906D02*
X010600Y005174D01*
X010694Y005080D01*
X011426Y005080D01*
X011520Y005174D01*
X011520Y005906D01*
X011426Y006000D01*
X010694Y006000D01*
X010600Y005906D01*
X010600Y005731D02*
X010520Y005731D01*
X010520Y005572D02*
X010600Y005572D01*
X010600Y005414D02*
X010520Y005414D01*
X010520Y005255D02*
X010600Y005255D01*
X010677Y005097D02*
X010443Y005097D01*
X010488Y004938D02*
X010632Y004938D01*
X010600Y004906D02*
X010694Y005000D01*
X011426Y005000D01*
X011520Y004906D01*
X011520Y004174D01*
X011426Y004080D01*
X010694Y004080D01*
X010600Y004174D01*
X010600Y004906D01*
X010600Y004780D02*
X010520Y004780D01*
X010520Y004621D02*
X010600Y004621D01*
X010600Y004463D02*
X010520Y004463D01*
X010520Y004304D02*
X010600Y004304D01*
X010628Y004146D02*
X010492Y004146D01*
X010439Y003987D02*
X010681Y003987D01*
X010694Y004000D02*
X010600Y003906D01*
X010600Y003174D01*
X010694Y003080D01*
X011426Y003080D01*
X011520Y003174D01*
X011520Y003906D01*
X011426Y004000D01*
X010694Y004000D01*
X010600Y003829D02*
X010520Y003829D01*
X010520Y003670D02*
X010600Y003670D01*
X010600Y003512D02*
X010520Y003512D01*
X010520Y003353D02*
X010600Y003353D01*
X010600Y003195D02*
X010520Y003195D01*
X010694Y003000D02*
X010600Y002906D01*
X010600Y002174D01*
X010694Y002080D01*
X011426Y002080D01*
X011520Y002174D01*
X011520Y002906D01*
X011426Y003000D01*
X010694Y003000D01*
X010600Y002878D02*
X010520Y002878D01*
X010520Y002719D02*
X010600Y002719D01*
X010600Y002561D02*
X010520Y002561D01*
X010520Y002402D02*
X010600Y002402D01*
X010600Y002244D02*
X010520Y002244D01*
X010431Y002085D02*
X010689Y002085D01*
X010694Y002000D02*
X010600Y001906D01*
X010600Y001174D01*
X010694Y001080D01*
X011426Y001080D01*
X011520Y001174D01*
X011520Y001906D01*
X011426Y002000D01*
X010694Y002000D01*
X010620Y001927D02*
X010500Y001927D01*
X010520Y001768D02*
X010600Y001768D01*
X010600Y001610D02*
X010520Y001610D01*
X010520Y001451D02*
X010600Y001451D01*
X010600Y001293D02*
X010520Y001293D01*
X010480Y001134D02*
X010640Y001134D01*
X011480Y001134D02*
X011640Y001134D01*
X011600Y001174D02*
X011694Y001080D01*
X012426Y001080D01*
X012520Y001174D01*
X012520Y001906D01*
X012426Y002000D01*
X011694Y002000D01*
X011600Y001906D01*
X011600Y001174D01*
X011600Y001293D02*
X011520Y001293D01*
X011520Y001451D02*
X011600Y001451D01*
X011600Y001610D02*
X011520Y001610D01*
X011520Y001768D02*
X011600Y001768D01*
X011620Y001927D02*
X011500Y001927D01*
X011431Y002085D02*
X011689Y002085D01*
X011694Y002080D02*
X011600Y002174D01*
X011600Y002906D01*
X011694Y003000D01*
X012426Y003000D01*
X012520Y002906D01*
X012520Y002174D01*
X012426Y002080D01*
X011694Y002080D01*
X011600Y002244D02*
X011520Y002244D01*
X011520Y002402D02*
X011600Y002402D01*
X011600Y002561D02*
X011520Y002561D01*
X011520Y002719D02*
X011600Y002719D01*
X011600Y002878D02*
X011520Y002878D01*
X011694Y003080D02*
X012426Y003080D01*
X012520Y003174D01*
X012520Y003906D01*
X012426Y004000D01*
X011694Y004000D01*
X011600Y003906D01*
X011600Y003174D01*
X011694Y003080D01*
X011600Y003195D02*
X011520Y003195D01*
X011520Y003353D02*
X011600Y003353D01*
X011600Y003512D02*
X011520Y003512D01*
X011520Y003670D02*
X011600Y003670D01*
X011600Y003829D02*
X011520Y003829D01*
X011439Y003987D02*
X011681Y003987D01*
X011694Y004080D02*
X012426Y004080D01*
X012520Y004174D01*
X012520Y004906D01*
X012426Y005000D01*
X011694Y005000D01*
X011600Y004906D01*
X011600Y004174D01*
X011694Y004080D01*
X011628Y004146D02*
X011492Y004146D01*
X011520Y004304D02*
X011600Y004304D01*
X011600Y004463D02*
X011520Y004463D01*
X011520Y004621D02*
X011600Y004621D01*
X011600Y004780D02*
X011520Y004780D01*
X011488Y004938D02*
X011632Y004938D01*
X011694Y005080D02*
X012426Y005080D01*
X012520Y005174D01*
X012520Y005906D01*
X012426Y006000D01*
X011694Y006000D01*
X011600Y005906D01*
X011600Y005174D01*
X011694Y005080D01*
X011677Y005097D02*
X011443Y005097D01*
X011520Y005255D02*
X011600Y005255D01*
X011600Y005414D02*
X011520Y005414D01*
X011520Y005572D02*
X011600Y005572D01*
X011600Y005731D02*
X011520Y005731D01*
X011520Y005889D02*
X011600Y005889D01*
X012520Y005889D02*
X012600Y005889D01*
X012600Y005906D02*
X012600Y005174D01*
X012694Y005080D01*
X013426Y005080D01*
X013520Y005174D01*
X013520Y005906D01*
X013426Y006000D01*
X012694Y006000D01*
X012600Y005906D01*
X012600Y005731D02*
X012520Y005731D01*
X012520Y005572D02*
X012600Y005572D01*
X012600Y005414D02*
X012520Y005414D01*
X012520Y005255D02*
X012600Y005255D01*
X012677Y005097D02*
X012443Y005097D01*
X012488Y004938D02*
X012632Y004938D01*
X012600Y004906D02*
X012600Y004174D01*
X012694Y004080D01*
X013426Y004080D01*
X013520Y004174D01*
X013520Y004906D01*
X013426Y005000D01*
X012694Y005000D01*
X012600Y004906D01*
X012600Y004780D02*
X012520Y004780D01*
X012520Y004621D02*
X012600Y004621D01*
X012600Y004463D02*
X012520Y004463D01*
X012520Y004304D02*
X012600Y004304D01*
X012628Y004146D02*
X012492Y004146D01*
X012439Y003987D02*
X012681Y003987D01*
X012694Y004000D02*
X012600Y003906D01*
X012600Y003174D01*
X012694Y003080D01*
X013426Y003080D01*
X013520Y003174D01*
X013520Y003906D01*
X013426Y004000D01*
X012694Y004000D01*
X012600Y003829D02*
X012520Y003829D01*
X012520Y003670D02*
X012600Y003670D01*
X012600Y003512D02*
X012520Y003512D01*
X012520Y003353D02*
X012600Y003353D01*
X012600Y003195D02*
X012520Y003195D01*
X012694Y003000D02*
X012600Y002906D01*
X012600Y002174D01*
X012694Y002080D01*
X013426Y002080D01*
X013520Y002174D01*
X013520Y002906D01*
X013426Y003000D01*
X012694Y003000D01*
X012600Y002878D02*
X012520Y002878D01*
X012520Y002719D02*
X012600Y002719D01*
X012600Y002561D02*
X012520Y002561D01*
X012520Y002402D02*
X012600Y002402D01*
X012600Y002244D02*
X012520Y002244D01*
X012431Y002085D02*
X012689Y002085D01*
X012694Y002000D02*
X012600Y001906D01*
X012600Y001174D01*
X012694Y001080D01*
X013426Y001080D01*
X013520Y001174D01*
X013520Y001906D01*
X013426Y002000D01*
X012694Y002000D01*
X012620Y001927D02*
X012500Y001927D01*
X012520Y001768D02*
X012600Y001768D01*
X012600Y001610D02*
X012520Y001610D01*
X012520Y001451D02*
X012600Y001451D01*
X012600Y001293D02*
X012520Y001293D01*
X012480Y001134D02*
X012640Y001134D01*
X013480Y001134D02*
X013600Y001134D01*
X013560Y001174D02*
X013654Y001080D01*
X014386Y001080D01*
X014480Y001174D01*
X014480Y001906D01*
X014386Y002000D01*
X013654Y002000D01*
X013560Y001906D01*
X013560Y001174D01*
X013560Y001293D02*
X013520Y001293D01*
X013520Y001451D02*
X013560Y001451D01*
X013560Y001610D02*
X013520Y001610D01*
X013520Y001768D02*
X013560Y001768D01*
X013580Y001927D02*
X013500Y001927D01*
X013431Y002085D02*
X013649Y002085D01*
X013654Y002080D02*
X013560Y002174D01*
X013560Y002906D01*
X013654Y003000D01*
X014386Y003000D01*
X014480Y002906D01*
X014480Y002174D01*
X014386Y002080D01*
X013654Y002080D01*
X013560Y002244D02*
X013520Y002244D01*
X013520Y002402D02*
X013560Y002402D01*
X013560Y002561D02*
X013520Y002561D01*
X013520Y002719D02*
X013560Y002719D01*
X013560Y002878D02*
X013520Y002878D01*
X013654Y003080D02*
X014386Y003080D01*
X014480Y003174D01*
X014480Y003906D01*
X014386Y004000D01*
X013654Y004000D01*
X013560Y003906D01*
X013560Y003174D01*
X013654Y003080D01*
X013560Y003195D02*
X013520Y003195D01*
X013520Y003353D02*
X013560Y003353D01*
X013560Y003512D02*
X013520Y003512D01*
X013520Y003670D02*
X013560Y003670D01*
X013560Y003829D02*
X013520Y003829D01*
X013439Y003987D02*
X013641Y003987D01*
X013654Y004080D02*
X014386Y004080D01*
X014480Y004174D01*
X014480Y004906D01*
X014386Y005000D01*
X013654Y005000D01*
X013560Y004906D01*
X013560Y004174D01*
X013654Y004080D01*
X013588Y004146D02*
X013492Y004146D01*
X013520Y004304D02*
X013560Y004304D01*
X013560Y004463D02*
X013520Y004463D01*
X013520Y004621D02*
X013560Y004621D01*
X013560Y004780D02*
X013520Y004780D01*
X013488Y004938D02*
X013592Y004938D01*
X013654Y005080D02*
X014386Y005080D01*
X014480Y005174D01*
X014480Y005906D01*
X014386Y006000D01*
X013654Y006000D01*
X013560Y005906D01*
X013560Y005174D01*
X013654Y005080D01*
X013637Y005097D02*
X013443Y005097D01*
X013520Y005255D02*
X013560Y005255D01*
X013560Y005414D02*
X013520Y005414D01*
X013520Y005572D02*
X013560Y005572D01*
X013560Y005731D02*
X013520Y005731D01*
X013520Y005889D02*
X013560Y005889D01*
X014480Y005889D02*
X014560Y005889D01*
X014560Y005906D02*
X014560Y005174D01*
X014654Y005080D01*
X015386Y005080D01*
X015480Y005174D01*
X015480Y005906D01*
X015386Y006000D01*
X014654Y006000D01*
X014560Y005906D01*
X014560Y005731D02*
X014480Y005731D01*
X014480Y005572D02*
X014560Y005572D01*
X014560Y005414D02*
X014480Y005414D01*
X014480Y005255D02*
X014560Y005255D01*
X014637Y005097D02*
X014403Y005097D01*
X014448Y004938D02*
X014592Y004938D01*
X014560Y004906D02*
X014560Y004174D01*
X014654Y004080D01*
X015386Y004080D01*
X015480Y004174D01*
X015480Y004906D01*
X015386Y005000D01*
X014654Y005000D01*
X014560Y004906D01*
X014560Y004780D02*
X014480Y004780D01*
X014480Y004621D02*
X014560Y004621D01*
X014560Y004463D02*
X014480Y004463D01*
X014480Y004304D02*
X014560Y004304D01*
X014588Y004146D02*
X014452Y004146D01*
X014399Y003987D02*
X014641Y003987D01*
X014654Y004000D02*
X014560Y003906D01*
X014560Y003174D01*
X014654Y003080D01*
X015386Y003080D01*
X015480Y003174D01*
X015480Y003906D01*
X015386Y004000D01*
X014654Y004000D01*
X014560Y003829D02*
X014480Y003829D01*
X014480Y003670D02*
X014560Y003670D01*
X014560Y003512D02*
X014480Y003512D01*
X014480Y003353D02*
X014560Y003353D01*
X014560Y003195D02*
X014480Y003195D01*
X014654Y003000D02*
X014560Y002906D01*
X014560Y002174D01*
X014654Y002080D01*
X015386Y002080D01*
X015480Y002174D01*
X015480Y002906D01*
X015386Y003000D01*
X014654Y003000D01*
X014560Y002878D02*
X014480Y002878D01*
X014480Y002719D02*
X014560Y002719D01*
X014560Y002561D02*
X014480Y002561D01*
X014480Y002402D02*
X014560Y002402D01*
X014560Y002244D02*
X014480Y002244D01*
X014391Y002085D02*
X014649Y002085D01*
X014654Y002000D02*
X014560Y001906D01*
X014560Y001174D01*
X014654Y001080D01*
X015386Y001080D01*
X015480Y001174D01*
X015480Y001906D01*
X015386Y002000D01*
X014654Y002000D01*
X014580Y001927D02*
X014460Y001927D01*
X014480Y001768D02*
X014560Y001768D01*
X014560Y001610D02*
X014480Y001610D01*
X014480Y001451D02*
X014560Y001451D01*
X014560Y001293D02*
X014480Y001293D01*
X014440Y001134D02*
X014600Y001134D01*
X015440Y001134D02*
X015600Y001134D01*
X015560Y001174D02*
X015654Y001080D01*
X016386Y001080D01*
X016480Y001174D01*
X016480Y001906D01*
X016386Y002000D01*
X015654Y002000D01*
X015560Y001906D01*
X015560Y001174D01*
X015560Y001293D02*
X015480Y001293D01*
X015480Y001451D02*
X015560Y001451D01*
X015560Y001610D02*
X015480Y001610D01*
X015480Y001768D02*
X015560Y001768D01*
X015580Y001927D02*
X015460Y001927D01*
X015391Y002085D02*
X015649Y002085D01*
X015654Y002080D02*
X016386Y002080D01*
X016480Y002174D01*
X016480Y002906D01*
X016386Y003000D01*
X015654Y003000D01*
X015560Y002906D01*
X015560Y002174D01*
X015654Y002080D01*
X015560Y002244D02*
X015480Y002244D01*
X015480Y002402D02*
X015560Y002402D01*
X015560Y002561D02*
X015480Y002561D01*
X015480Y002719D02*
X015560Y002719D01*
X015560Y002878D02*
X015480Y002878D01*
X015654Y003080D02*
X015560Y003174D01*
X015560Y003906D01*
X015654Y004000D01*
X016386Y004000D01*
X016480Y003906D01*
X016480Y003174D01*
X016386Y003080D01*
X015654Y003080D01*
X015560Y003195D02*
X015480Y003195D01*
X015480Y003353D02*
X015560Y003353D01*
X015560Y003512D02*
X015480Y003512D01*
X015480Y003670D02*
X015560Y003670D01*
X015560Y003829D02*
X015480Y003829D01*
X015399Y003987D02*
X015641Y003987D01*
X015654Y004080D02*
X016386Y004080D01*
X016480Y004174D01*
X016480Y004906D01*
X016386Y005000D01*
X015654Y005000D01*
X015560Y004906D01*
X015560Y004174D01*
X015654Y004080D01*
X015588Y004146D02*
X015452Y004146D01*
X015480Y004304D02*
X015560Y004304D01*
X015560Y004463D02*
X015480Y004463D01*
X015480Y004621D02*
X015560Y004621D01*
X015560Y004780D02*
X015480Y004780D01*
X015448Y004938D02*
X015592Y004938D01*
X015654Y005080D02*
X015560Y005174D01*
X015560Y005906D01*
X015654Y006000D01*
X016386Y006000D01*
X016480Y005906D01*
X016480Y005174D01*
X016386Y005080D01*
X015654Y005080D01*
X015637Y005097D02*
X015403Y005097D01*
X015480Y005255D02*
X015560Y005255D01*
X015560Y005414D02*
X015480Y005414D01*
X015480Y005572D02*
X015560Y005572D01*
X015560Y005731D02*
X015480Y005731D01*
X015480Y005889D02*
X015560Y005889D01*
X016403Y005097D02*
X016637Y005097D01*
X016654Y005080D02*
X016560Y005174D01*
X016560Y005906D01*
X016654Y006000D01*
X017386Y006000D01*
X017480Y005906D01*
X017480Y005174D01*
X017386Y005080D01*
X016654Y005080D01*
X016654Y005000D02*
X016560Y004906D01*
X016560Y004174D01*
X016654Y004080D01*
X017386Y004080D01*
X017480Y004174D01*
X017480Y004906D01*
X017386Y005000D01*
X016654Y005000D01*
X016592Y004938D02*
X016448Y004938D01*
X016480Y004780D02*
X016560Y004780D01*
X016560Y004621D02*
X016480Y004621D01*
X016480Y004463D02*
X016560Y004463D01*
X016560Y004304D02*
X016480Y004304D01*
X016452Y004146D02*
X016588Y004146D01*
X016654Y004000D02*
X016560Y003906D01*
X016560Y003174D01*
X016654Y003080D01*
X017386Y003080D01*
X017480Y003174D01*
X017480Y003906D01*
X017386Y004000D01*
X016654Y004000D01*
X016641Y003987D02*
X016399Y003987D01*
X016480Y003829D02*
X016560Y003829D01*
X016560Y003670D02*
X016480Y003670D01*
X016480Y003512D02*
X016560Y003512D01*
X016560Y003353D02*
X016480Y003353D01*
X016480Y003195D02*
X016560Y003195D01*
X016654Y003000D02*
X016560Y002906D01*
X016560Y002174D01*
X016654Y002080D01*
X017386Y002080D01*
X017480Y002174D01*
X017480Y002906D01*
X017386Y003000D01*
X016654Y003000D01*
X016560Y002878D02*
X016480Y002878D01*
X016480Y002719D02*
X016560Y002719D01*
X016560Y002561D02*
X016480Y002561D01*
X016480Y002402D02*
X016560Y002402D01*
X016560Y002244D02*
X016480Y002244D01*
X016391Y002085D02*
X016649Y002085D01*
X016654Y002000D02*
X016560Y001906D01*
X016560Y001174D01*
X016654Y001080D01*
X017386Y001080D01*
X017480Y001174D01*
X017480Y001906D01*
X017386Y002000D01*
X016654Y002000D01*
X016580Y001927D02*
X016460Y001927D01*
X016480Y001768D02*
X016560Y001768D01*
X016560Y001610D02*
X016480Y001610D01*
X016480Y001451D02*
X016560Y001451D01*
X016560Y001293D02*
X016480Y001293D01*
X016440Y001134D02*
X016600Y001134D01*
X017440Y001134D02*
X017600Y001134D01*
X017560Y001174D02*
X017654Y001080D01*
X018386Y001080D01*
X018480Y001174D01*
X018480Y001906D01*
X018386Y002000D01*
X017654Y002000D01*
X017560Y001906D01*
X017560Y001174D01*
X017560Y001293D02*
X017480Y001293D01*
X017480Y001451D02*
X017560Y001451D01*
X017560Y001610D02*
X017480Y001610D01*
X017480Y001768D02*
X017560Y001768D01*
X017580Y001927D02*
X017460Y001927D01*
X017391Y002085D02*
X017649Y002085D01*
X017560Y002244D02*
X017480Y002244D01*
X017480Y002402D02*
X017560Y002402D01*
X017560Y002561D02*
X017480Y002561D01*
X017480Y002719D02*
X017560Y002719D01*
X017560Y002878D02*
X017480Y002878D01*
X017480Y003195D02*
X017560Y003195D01*
X017560Y003353D02*
X017480Y003353D01*
X017480Y003512D02*
X017560Y003512D01*
X017560Y003670D02*
X017480Y003670D01*
X017480Y003829D02*
X017560Y003829D01*
X017641Y003987D02*
X017399Y003987D01*
X017452Y004146D02*
X017588Y004146D01*
X017560Y004304D02*
X017480Y004304D01*
X017480Y004463D02*
X017560Y004463D01*
X017560Y004621D02*
X017480Y004621D01*
X017480Y004780D02*
X017560Y004780D01*
X017592Y004938D02*
X017448Y004938D01*
X017403Y005097D02*
X017637Y005097D01*
X017560Y005255D02*
X017480Y005255D01*
X017480Y005414D02*
X017560Y005414D01*
X017560Y005572D02*
X017480Y005572D01*
X017480Y005731D02*
X017560Y005731D01*
X017560Y005889D02*
X017480Y005889D01*
X016560Y005889D02*
X016480Y005889D01*
X016480Y005731D02*
X016560Y005731D01*
X016560Y005572D02*
X016480Y005572D01*
X016480Y005414D02*
X016560Y005414D01*
X016560Y005255D02*
X016480Y005255D01*
X018480Y002561D02*
X019849Y002561D01*
X019522Y002402D02*
X018480Y002402D01*
X018480Y002244D02*
X019354Y002244D01*
X019236Y002085D02*
X018391Y002085D01*
X018460Y001927D02*
X019145Y001927D01*
X019103Y001768D02*
X018480Y001768D01*
X018480Y001610D02*
X019070Y001610D01*
X019070Y001451D02*
X018480Y001451D01*
X018480Y001293D02*
X019087Y001293D01*
X019129Y001134D02*
X018440Y001134D01*
X020530Y007157D02*
X020700Y007157D01*
X020700Y007316D02*
X020670Y007316D01*
X020670Y007474D02*
X020700Y007474D01*
X020700Y007633D02*
X020670Y007633D01*
X020700Y007791D02*
X020582Y007791D01*
X020700Y007950D02*
X020423Y007950D01*
X020481Y008108D02*
X020700Y008108D01*
X020700Y008267D02*
X020639Y008267D01*
X020670Y008425D02*
X020700Y008425D01*
X020700Y008584D02*
X020670Y008584D01*
X020700Y008742D02*
X020631Y008742D01*
X020700Y008901D02*
X020472Y008901D01*
X020432Y009059D02*
X020700Y009059D01*
X020700Y009218D02*
X020590Y009218D01*
X020670Y009376D02*
X020700Y009376D01*
X020700Y009535D02*
X020670Y009535D01*
X020670Y009693D02*
X020700Y009693D01*
X020700Y010169D02*
X020541Y010169D01*
X020670Y010327D02*
X020700Y010327D01*
X020700Y010486D02*
X020670Y010486D01*
X020670Y010644D02*
X020700Y010644D01*
X020700Y010803D02*
X020570Y010803D01*
X020700Y010961D02*
X020412Y010961D01*
X020492Y011120D02*
X020700Y011120D01*
X020700Y011278D02*
X020651Y011278D01*
X020670Y011437D02*
X020700Y011437D01*
X020700Y011595D02*
X020670Y011595D01*
X020700Y011754D02*
X020619Y011754D01*
X020700Y011912D02*
X020461Y011912D01*
X020472Y012071D02*
X020700Y012071D01*
X020700Y012229D02*
X020630Y012229D01*
X020690Y012388D02*
X020700Y012388D01*
X020690Y012546D02*
X020700Y012546D01*
X020690Y012705D02*
X020700Y012705D01*
X020700Y012863D02*
X020538Y012863D01*
X020423Y013022D02*
X020700Y013022D01*
X020700Y013180D02*
X020581Y013180D01*
X020690Y013339D02*
X020700Y013339D01*
X019773Y013814D02*
X018203Y013814D01*
X018361Y013656D02*
X019670Y013656D01*
X020162Y012229D02*
X020198Y012229D01*
X020198Y012071D02*
X020162Y012071D01*
X008600Y005889D02*
X008480Y005889D01*
X008480Y005731D02*
X008600Y005731D01*
X008600Y005572D02*
X008480Y005572D01*
X008480Y005414D02*
X008600Y005414D01*
X008600Y005255D02*
X008480Y005255D01*
X001490Y016984D02*
X001389Y016984D01*
X001596Y017777D02*
X001730Y017777D01*
X001730Y017935D02*
X001438Y017935D01*
X001466Y018094D02*
X001730Y018094D01*
X001730Y018252D02*
X001625Y018252D01*
X001670Y019679D02*
X003890Y019679D01*
X003890Y019837D02*
X001536Y019837D01*
X000833Y020154D02*
X000660Y020154D01*
X000660Y020313D02*
X000690Y020313D01*
X000690Y020471D02*
X000660Y020471D01*
X000660Y020630D02*
X000690Y020630D01*
X000660Y020788D02*
X000775Y020788D01*
X000660Y020947D02*
X000934Y020947D01*
X000882Y021105D02*
X000660Y021105D01*
X000660Y021264D02*
X000724Y021264D01*
X003750Y019520D02*
X003890Y019520D01*
X003890Y019362D02*
X003750Y019362D01*
D16*
X003540Y019460D02*
X001220Y019460D01*
X001180Y019500D01*
X001180Y018500D02*
X001940Y018500D01*
X001940Y016500D01*
X003540Y014900D01*
X003600Y014880D01*
X003600Y015880D02*
X003540Y015940D01*
X003540Y019460D01*
X004100Y021140D02*
X004030Y021200D01*
X004100Y021140D02*
X004100Y015940D01*
X004580Y015940D01*
X004600Y015880D01*
X004580Y015860D01*
X004580Y014900D01*
X004600Y014880D01*
X004580Y013860D02*
X004600Y013860D01*
X004580Y013860D02*
X004580Y012900D01*
X004600Y012860D01*
X004580Y012820D01*
X004580Y011860D01*
X004600Y011860D01*
X004180Y011300D02*
X004180Y010420D01*
X003380Y010420D01*
X002180Y011620D01*
X002180Y014020D01*
X000980Y014020D01*
X000660Y014340D01*
X000660Y015460D01*
X001140Y015460D01*
X001180Y015500D01*
X001700Y015700D02*
X001700Y017460D01*
X001220Y017460D01*
X001180Y017500D01*
X001700Y015700D02*
X003540Y013860D01*
X003600Y013860D01*
X002580Y014500D02*
X001180Y014500D01*
X002580Y014500D02*
X002580Y011860D01*
X003600Y010840D01*
X004180Y011300D02*
X003620Y011860D01*
X003600Y011860D01*
X004600Y012860D02*
X004660Y012900D01*
X009780Y012900D01*
X010100Y013220D01*
X009780Y014340D02*
X008100Y016020D01*
X006180Y016020D01*
X006180Y014740D01*
X006180Y016020D02*
X006180Y021140D01*
X005060Y021140D01*
X005030Y021200D01*
X009740Y022180D02*
X009780Y022180D01*
X009780Y021060D01*
X012020Y018820D01*
X012500Y018820D01*
X013380Y017940D01*
X013420Y017940D01*
X013300Y017460D02*
X013940Y017460D01*
X014420Y017940D01*
X014420Y022180D01*
X010740Y022180D01*
X013300Y017460D02*
X010580Y014740D01*
X009780Y014340D02*
X017380Y014340D01*
X020180Y011540D01*
X020180Y011500D01*
X008980Y012500D02*
X006260Y012500D01*
X004600Y010840D01*
X004580Y010820D01*
X004580Y009860D01*
X004600Y009840D01*
X004580Y009780D01*
X004580Y008900D01*
X004600Y008840D01*
X003600Y008840D02*
X001700Y010740D01*
X001700Y011860D01*
X001220Y011860D01*
X001180Y011900D01*
X001940Y011460D02*
X001940Y012900D01*
X001180Y012900D01*
X001940Y011460D02*
X003540Y009860D01*
X003600Y009840D01*
D17*
X006180Y014740D03*
X008100Y016020D03*
X010580Y014740D03*
X010100Y013220D03*
X008980Y012500D03*
M02*
