G75*
G70*
%OFA0B0*%
%FSLAX24Y24*%
%IPPOS*%
%LPD*%
%AMOC8*
5,1,8,0,0,1.08239X$1,22.5*
%
%ADD10C,0.1340*%
%ADD11R,0.0316X0.0946*%
%ADD12R,0.0513X0.0474*%
%ADD13R,0.0474X0.0513*%
%ADD14C,0.0640*%
%ADD15OC8,0.0640*%
%ADD16R,0.0395X0.0395*%
%ADD17OC8,0.0740*%
%ADD18R,0.0680X0.0680*%
%ADD19C,0.0634*%
%ADD20C,0.0867*%
%ADD21C,0.0480*%
D10*
X001180Y002000D03*
X007180Y022010D03*
X018180Y022020D03*
X020180Y001500D03*
D11*
X009630Y013236D03*
X009130Y013236D03*
X008630Y013236D03*
X008130Y013236D03*
X008130Y015284D03*
X008630Y015284D03*
X009130Y015284D03*
X009630Y015284D03*
D12*
X009135Y016760D03*
X008465Y016760D03*
X010225Y016760D03*
X010895Y016760D03*
X011130Y014775D03*
X011130Y014105D03*
X007560Y018625D03*
X007560Y019295D03*
D13*
X005015Y017010D03*
X004345Y017010D03*
X006660Y014725D03*
X006660Y014055D03*
D14*
X005030Y020920D02*
X005030Y021480D01*
X004030Y021480D02*
X004030Y020920D01*
X003030Y020920D02*
X003030Y021480D01*
X008740Y021900D02*
X008740Y022460D01*
X009740Y022460D02*
X009740Y021900D01*
X010740Y021900D02*
X010740Y022460D01*
D15*
X004600Y015880D03*
X004600Y014880D03*
X003600Y014880D03*
X003600Y015880D03*
X003600Y013860D03*
X003600Y012860D03*
X003600Y011860D03*
X004600Y011860D03*
X004600Y012860D03*
X004600Y013860D03*
X004600Y010840D03*
X004600Y009840D03*
X004600Y008840D03*
X003600Y008840D03*
X003600Y009840D03*
X003600Y010840D03*
D16*
X007550Y020265D03*
X007550Y020855D03*
D17*
X001180Y020500D03*
X001180Y019500D03*
X001180Y018500D03*
X001180Y017500D03*
X001180Y016500D03*
X001180Y015500D03*
X001180Y014500D03*
X001180Y012900D03*
X001180Y011900D03*
X001180Y010900D03*
X001180Y009900D03*
X001180Y008900D03*
X001180Y007900D03*
X001180Y006900D03*
X001180Y005900D03*
X001180Y004900D03*
X001180Y003900D03*
X001180Y021500D03*
X020180Y021500D03*
X020180Y020500D03*
X020180Y019500D03*
X020180Y018500D03*
X020180Y017500D03*
X020180Y016500D03*
X020180Y014500D03*
X020180Y013500D03*
X020180Y012500D03*
X020180Y011500D03*
X020180Y010500D03*
X020180Y009500D03*
X020180Y008500D03*
X020180Y007500D03*
D18*
X018020Y005540D03*
X018020Y004540D03*
X018020Y003540D03*
X018020Y002540D03*
X018020Y001540D03*
X017020Y001540D03*
X017020Y002540D03*
X017020Y003540D03*
X017020Y004540D03*
X017020Y005540D03*
X016020Y005540D03*
X016020Y004540D03*
X016020Y003540D03*
X015020Y003540D03*
X015020Y004540D03*
X015020Y005540D03*
X014020Y005540D03*
X013060Y005540D03*
X013060Y004540D03*
X014020Y004540D03*
X014020Y003540D03*
X013060Y003540D03*
X013060Y002540D03*
X014020Y002540D03*
X014020Y001540D03*
X013060Y001540D03*
X012060Y001540D03*
X012060Y002540D03*
X011060Y002540D03*
X011060Y001540D03*
X010060Y001540D03*
X010060Y002540D03*
X010060Y003540D03*
X010060Y004540D03*
X010060Y005540D03*
X009060Y005540D03*
X009060Y004540D03*
X009060Y003540D03*
X009060Y002540D03*
X009060Y001540D03*
X008020Y001540D03*
X008020Y002540D03*
X007020Y002540D03*
X007020Y001540D03*
X006020Y001540D03*
X006020Y002540D03*
X005020Y002540D03*
X005020Y001540D03*
X004020Y001540D03*
X004020Y002540D03*
X004020Y003540D03*
X004020Y004540D03*
X004020Y005540D03*
X005020Y005540D03*
X005020Y004540D03*
X005020Y003540D03*
X006020Y003540D03*
X006020Y004540D03*
X006020Y005540D03*
X007020Y005540D03*
X007020Y004540D03*
X007020Y003540D03*
X008020Y003540D03*
X008020Y004540D03*
X008020Y005540D03*
X011060Y005540D03*
X011060Y004540D03*
X011060Y003540D03*
X012060Y003540D03*
X012060Y004540D03*
X012060Y005540D03*
X015020Y002540D03*
X015020Y001540D03*
X016020Y001540D03*
X016020Y002540D03*
D19*
X014420Y017940D03*
X013420Y017940D03*
D20*
X012420Y019940D03*
X016420Y019940D03*
D21*
X010580Y014740D03*
X010100Y013220D03*
X008980Y012500D03*
X006180Y014740D03*
X008100Y016020D03*
M02*
